<?xml version="1.0" encoding="utf-8"?>
<svg version="1.1" viewBox="0 0 225.48 121.44" xmlns="http://www.w3.org/2000/svg">
 <defs>
  <filter id="a" color-interpolation-filters="sRGB">
   <feGaussianBlur result="blur" stdDeviation="0.07 0.07"/>
  </filter>
 </defs>
 <path d="m134.89 110.92-0.4-0.4-0.2-1-0.2-1.1 0.4-1.6 1.8-2v-1.2l-0.3-0.1-0.2-0.2v-0.5h0.9l0.8 0.2 0.4 0.2 0.3 0.2 2.1-1 2.2-1.1 1.6-0.6 5-1.2 0.4-0.3 0.5-0.4-0.6-1.4-0.5-1.5-0.2 0.3-0.3 0.2-0.1 1-0.2 1.2-0.3 0.2-0.3 0.3-1-1.2v-0.5l-0.1-0.5-0.8-5-0.2-0.2-0.1-0.2 0.4-0.2 0.4-0.1v0.8h0.4l-0.1 0.6-0.1 0.7 0.4 2 0.5 2h0.3l0.4-1.1 0.3-1v-4h0.3l0.3 0.1 0.2 1.7 0.2 1.6 0.4 1.2 0.2-1 0.2-1.1v-2l0.3-0.1 0.3-0.2v0.3l0.2 0.4 0.3 1.5 0.4 1.6 0.4 0.2v-0.1l0.2-1.8v-1.7l0.2-0.3 0.1-0.4 0.3 0.2 0.2 0.3 0.2 1 0.3 1 0.3 0.2h0.4l-0.2-5h0.9l0.5 0.2v1.6l0.1 1.7v1.7l0.7 1 0.6 1h0.4l0.4-3 0.5-0.7 0.4-0.8 0.4 0.4 0.4 0.3 0.4 1.4h0.7l0.1-2.3 0.2-2.3 0.2-0.4 0.1-0.5h0.5l0.8 0.8-0.1 2.1-0.2 2.1 0.7-0.3 0.7-0.2 0.7 0.4 0.8 0.4 0.6 0.7 0.5 0.7-0.1-0.9-0.1-1 0.4-0.6h0.5l0.5 0.2v0.7l0.2 0.8-0.4 0.2-0.3 0.2 0.6 1.4h0.8v-1l0.1-1v-1.5h0.4l0.5 0.2v0.5l0.1 0.5 0.3 1 0.2 1h0.5l0.1-2.6v-2.6h1.4l0.1 0.7v0.7l-0.2 1.4-0.3 1.4 0.2 0.3 0.3 0.3h7.3v0.8l-1 0.2-1.1 0.2-2.5-0.2-2.5-0.1-1-0.6-0.2 0.4-0.2 0.3 0.2 1.2-0.6 0.4-0.3-0.3-0.4-0.3-0.4-1.6h-0.4l-0.1 0.6-0.2 0.7-0.5 0.1-0.4 0.2-0.7-0.8-0.8-0.9-0.2 0.7-0.3 0.7-0.5 0.2-0.6 0.1-0.8-0.2-0.8-0.1-1.1-1.2-1.2-1.2-0.3 0.2-0.3 0.1v1.8l-0.5 0.5-0.5 0.4-0.4-0.3-0.3-0.3-0.4 0.4v0.9h0.8l0.3 0.7 0.2 0.6 0.6-0.1 0.7-0.1 0.2 0.2 0.2 0.3h1v0.9l0.8 1.6 0.6 0.4-1.2 0.6-0.7-0.1-0.7-0.2-1.3-0.6-1.4-0.7-1-0.4-1.2-0.5-0.2-0.8-0.3-0.8 0.3-0.4 0.3-0.3h0.7v-0.2l-0.6-1-0.6-1.2h-0.4l-0.1 1-0.2 0.9h-0.5l-0.4-0.7-0.4-0.6-0.3 0.1-0.2 0.2v0.9l-0.3 0.1-0.2 0.1-0.2 0.7-0.1 0.7 1 0.3 1.2 0.4 0.7 0.7 0.8 0.7v1.9l-0.8 2.2 0.1 0.2 0.2 0.1 0.4-0.4 0.4-0.3 0.6-1.3 0.7-1.3h0.5v1.3l1-0.6 0.2-0.2 0.2-0.3h1l0.1 0.3 0.2 0.2-0.3 0.6-0.3 0.5-0.2 0.5-0.3 0.5 0.3 0.3 0.2 0.4 0.5-0.3 0.4-0.2 0.4-0.8 0.2-0.5 0.1-0.4h1l0.5 0.3 0.5 0.4-1 1.6h0.6l2-0.8 0.4-0.4 0.4-0.3 1 1-0.3 0.5-0.3 0.6 0.1 0.3 0.2 0.3 0.7-0.2 0.6-0.2 1.5-1.2 1.4-1.3 0.5-0.8 0.6-0.9h1v0.5l-0.4 0.3-0.5 0.4-0.7 1.2-0.8 1.2v1.2l-1 1-1.2 1-1.6 1h-3l-1.4-1v-0.8l0.9 0.6 0.9 0.7h2l1-0.5 0.9-0.5 1-0.8 0.9-0.8h-1.8l-1.7 0.2-0.3-0.2h-0.3v-0.8l-0.7-0.3-0.6-0.3-0.6 0.3-0.5 0.3h-1.5l-0.4-0.3-0.4-0.2-0.4 0.4-0.5 0.4-0.7-0.2-0.8-0.1-0.3 0.2-0.4 0.3-0.5-0.3-0.4-0.3-0.8 0.6-0.8 0.5h-2v0.8h-0.8l-2.2 2.4h-0.9l-0.9 0.1v-0.3l-0.2-0.2 1.6-0.4 3-3v-0.5l0.5-0.5 0.6-0.5 1-2v-1.8l-0.2-0.4-0.2-0.5-0.7-0.3-0.7-0.4-0.8-0.2-0.9-0.1-1 0.9-0.8 1v0.8l-0.7 1.2-0.7 1.3-0.7 0.8-0.6 0.8v0.3h1l1-0.6 1-0.7 0.6-0.7 0.5-0.7 0.8-0.8 0.6-0.9 0.7-0.8h0.4v0.7l-0.3 0.4-0.4 0.3-1.5 2.7-1.5 2.6-0.2 0.2-0.6-0.6 0.8-0.8 0.3-0.6 0.3-0.5-0.3-0.3-0.8 0.7-1 0.6-1.3 0.4-1.4 0.4v-2.2l-0.2-0.2-0.3-0.2-0.3 0.5-0.2 0.5-0.9 0.8-0.9 0.9-0.6 0.5-0.5 0.5-0.8 0.5-0.9 0.4-0.1-0.4-0.2-0.4 0.2-0.5 0.2-0.4 0.7 0.1 0.7 0.2 4.4-4.6 2.4-3.2v-0.6h-0.7l-2.7 0.8-2.8 0.8-1.8 1-1.9 0.9-0.5 0.7-0.5 0.8h-0.8l0.2 0.4 0.1 0.4h-1.3l-0.8 1.2v2l0.4 1.2 0.8 0.2 0.7 0.2-0.4 0.2-0.4 0.3h-0.8zm34.5-4 0.3-0.4h-0.5l-0.5 0.1v0.4l-0.2 0.3h0.5zm-11.6-1.4 0.4-0.8v-0.2l-0.6 0.2-0.6 0.3-0.2 0.5v0.6l0.2 0.1h0.4zm-9.4-2 0.7-1-1 0.7-1 0.8v1.3l0.4-0.3 0.3-0.3zm-10.8 0v-0.2h-0.8v1.3l0.4-0.4 0.4-0.3zm11.3-1.5 1.4-1.4v-0.7h-0.4l-0.7 0.7-0.7 0.8v0.6h-0.5l-0.4 0.7-0.5 0.6h0.4zm2.4-3 0.1-0.4h-0.8l-0.3 0.4-0.4 0.4h0.7l0.6-0.2zm0.2-1.8-0.2-0.6-0.3-0.6-0.4-0.7-0.1 0.7-0.2 0.8 0.1 0.5 0.2 0.5h1.1zm1.5-2-0.1-0.3h-0.2v1.1l0.2-0.2 0.3-0.2zm11.7 0.2 0.2-0.5-0.4-0.6-0.3-0.5-0.6-0.2-0.6-0.1-0.2 0.2-0.3 0.1v0.8l0.6 0.6 0.6 0.7h0.9zm-3.4-4.7v-0.5l-0.1 0.8v0.8l0.1-0.3 0.2-0.3zm-78.4 17.2-1.3-1-0.7-0.7-2.8-1.3-2.7-1.3v-0.5h0.4l2.3 1 2.2 1 1 0.6 0.9 0.6 0.8 0.8 1 0.7h1.4l2-1.6 1.9-1.7 1.5-1.5 1.6-1.5 0.2-0.7 0.3-0.6-0.2-0.4-0.1-0.4h-1.7l-3.4 1.6 0.4 0.8v0.2h2v0.5h-0.8l-1-0.2-1-0.3-0.1-0.4-0.2-0.4 0.2-0.3 0.1-0.4 1.5-0.7 2.5-1 0.9-0.3 0.8 0.4 0.9 0.5v1.6l-1.2 1.4-1.1 1.5-1.9 1.5-1.8 1.5-2.6 2h-0.9zm33.8-2.5-0.1-1.6-0.1-1.5h1.4l1.2 0.8v1.2l-1 0.6-0.9 0.6h-0.5zm1.6-1.8v-0.5h-0.8v0.7l0.3 0.3h0.5zm8.8 1.4-0.4-0.2 0.2-0.5 0.2-0.4-0.5-0.1-0.4-0.2v-0.7l0.4-0.2 0.5-0.2h1.2l0.2 0.5 0.1 0.4-0.4 0.5-0.4 0.4v0.6l-0.2 0.1-0.2 0.2zm14-0.9v-1h1v0.6l0.6 0.4 0.5 0.3-0.6 0.8h-1.4zm-29.2 0.7-0.2-0.2v-2.2h2.1l0.1 0.2 0.2 0.2-0.6 1 0.6 0.4v0.5l-1.4-0.2-0.1 0.2-0.2 0.2h-0.4zm9.7-0.5-0.4-0.5v-0.4l0.4-0.4 0.4-0.5h1.3l0.3 0.6 0.2 0.5-0.3 0.6-0.3 0.7h-1.2zm9.4-0.4 0.1-1h0.7l0.8-0.1 0.8 2v0.1h-2.4zm-29 0.2-0.4-0.6v-1.1l0.8-1.2h1l1 0.8-0.6 0.6-0.8-0.6-0.1 0.2-0.2 0.2v1.2l0.2 0.1 0.3 0.2 0.1-0.3 0.2-0.3h0.8v0.8l-0.5 0.3-0.6 0.3h-0.8zm5.2 0.2-0.3-0.3v-1.3l0.3-0.4 0.3-0.3h0.7l1 1-0.1 0.7-0.1 0.6-1.2 0.4h-0.3zm34.3-5.5-0.3-0.6-0.5-1.1-0.5-1.2h-0.3v0.7l-0.1 0.7-0.3 0.3-0.3 0.2-0.3-0.1-0.2-0.2-0.5-0.9-0.4-0.8-0.5-1.7-0.4-1.7v0.8l0.3 2 0.4 2.1-0.6 1.2-1.4 0.6-0.7-0.6-0.6-0.6-0.4-1.2 0.3-0.1 0.3-0.2 0.3 0.3 0.3 0.2 1.4-0.2v-2l-1-4-0.6-3.6-0.1-1.7-0.2-1.6 0.3-0.1 0.3-0.2 0.3 0.5 0.3 0.6 0.7 2.7 0.6 2.7 0.8 3.4 0.8 2.8h0.4l0.2-1 0.2-1.1-0.2-2.3-0.2-2.4-0.3-0.3-0.3-0.4v-4.4l1.9-1.9-0.4-0.2-0.4-0.3-0.3 0.3-0.3 0.2-0.2-0.2-0.3-0.2v-2h1v1l0.2-0.5 0.3-0.4h5l0.1 0.5 0.2 0.5 0.1 0.6 0.2 0.5h-1.4l-1.3-0.1-0.4 0.4 0.3 0.1 0.2 0.2 0.7 1 0.8 1.2 0.2 0.7 0.3 0.7v3.2l-0.2 0.4-0.4 0.4 0.2 0.2 0.2 0.3v1.1l0.2 1.2 0.1 2.5 0.2 2.6-0.7 0.5-0.7 0.6h-2zm1.8-1-0.2-0.4-0.1-0.5-0.2-0.4 1.4-0.6v-1.6l-0.1-1.7h-1.6l-2-0.4 0.2 1.3 0.1 1.2 0.5 0.5v0.8l0.7 1.2 0.7 1.1h0.8zm-6.6-6.1 0.1-0.3h-0.5v0.6h0.2zm7.3-0.6-0.1-0.9-0.3-0.3-0.3-0.4-0.4-2.1-0.5-2.2 0.2-0.2v-0.2l0.8 0.6 0.6-0.2-0.8-1-0.7-1.1h-1.9l-0.3 0.2-0.4 0.3-0.5 1.1-0.5 1.2 0.2 1 0.1 1 0.8 0.7 0.8 0.8v1.2l0.8 0.7 0.9 0.7h1.7zm-7.7-1.2-0.3-0.5v1.2l0.2 0.1 0.2 0.2v-0.2l0.2-0.3zm8-3.2-0.1-0.8h-0.5l0.2 0.6 0.1 0.6 0.1 0.3 0.1 0.4 0.2-0.1 0.1-0.2zm-3-5.5v-0.6h-0.7l-0.3 0.3-0.3 0.4 0.6 0.6h0.7zm1.4 0.2 0.1-0.6-0.2-0.1-0.3-0.2-0.3 0.3-0.2 0.3 0.1 0.4 0.2 0.4h0.5zm-74.3 17-1-0.3-1.2-0.4-1.1-0.4-1.5-0.9-1.4-0.9-1.6-1.4-1.5-1.4-1.4-2.8-1.5-2.8v-7.9l0.3-0.1 0.3-0.2 0.3-1.2 0.4-1.2 0.8-1.2 1.5-2 0.6-0.7 1.2-1 1.3-1 1.2-0.6 1.1-0.6 3-1 2.3-0.2 2.4-0.1 2.2 0.6 2.2 0.5 1.1 0.6 1.1 0.5 1.2 0.9 1.2 0.8 0.6 0.8h2.2l2.2 0.1 0.4 0.6 0.7-0.5 0.7-0.4 0.3 0.3 0.3 0.2 1.2-0.1 1.3-0.2v2.2h-0.8l-0.9-0.2-0.1-0.6-0.2-0.6-0.6 1.4h-1.3l-0.2-0.2-0.1-0.3-0.7 0.4-0.6 0.4-0.5-0.1-0.6-0.2 0.2-0.6 0.1-0.7-0.1-0.2-0.2-0.3-1.1 1.1 1 2 1 1.9v0.7l0.4 1 0.5 0.9v2.5l-0.2 2.4-0.5 1.8-0.5 1.7-1.6 2.6-2.4 2.8 0.2 0.1 0.3 0.2v1.3l0.3 0.1 0.2 0.2v-1.6h3.2v0.8h0.5v-0.8h0.9l-0.2 1.6 0.4 0.2h0.3v-2.6h1.6v1.5l0.1 1.3h-4.3l-3.1 0.2-2 0.4v-0.9l-0.3 0.2-0.4 0.2-0.8 0.1h-0.8l-1.7 0.6-1.7 0.5-2.5 0.1-2.5 0.2-1-0.3zm4.4-1.7 0.5-0.3v-1.3h-0.7l-2.6 0.8-0.5-0.5 0.3-0.5 0.3-0.4h1.2l1.3-0.1 1.2-1.2 0.6 0.4v-0.6h0.8l0.8-0.5 0.7-0.5 0.4 1.4 0.5 1.5-0.2 0.2-0.2 0.3h0.6v-0.5h0.8l1.2-0.9 1.1-0.8 0.8-1 0.8-0.9 0.7-1 0.6-1.2 0.6-1.8 0.6-1.9v-3h-0.6l-0.1 0.4-0.2 0.4-1 0.2-1 0.1v0.4l-0.2 0.1-0.2 0.2-0.2-0.8-0.2-0.7 0.4-0.2 0.4-0.1-0.5-0.4-0.4-0.3 0.2-0.3 0.1-0.3h0.9l-0.2-0.3v-0.3l-0.7-0.1-0.5-0.1v-0.3l0.2-0.3 1-0.3 1.2-0.2 0.3 0.4 0.2 0.5h0.6l-0.4-1.8-1-1.7-1-1.8-1.3-1.1-1.3-1.2-1.7-0.9-1.6-0.9-1.5-0.3-1.5-0.4h-3.5l-2 0.7-2.1 0.6-1.9 1.2-1.8 1.3-0.8 1-0.8 1.2-0.8 1.5-0.7 1.5-0.6 2.2-0.2 3 0.3 1.5 0.2 1.6 1 2 0.9 1.9 2.6 2.8 2.2 1.1 2.2 1.2 1.5 0.3 1.6 0.3h1.8zm-5.5-1.3-0.4-0.2 0.2-0.6 0.2-0.5-0.7 0.1-0.7 0.2v-0.6h-1l-0.2-0.4-0.1-0.4h-0.9l0.2-0.8 0.2-0.9-0.6 0.5-0.5 0.5-0.3-0.3-0.2-0.4 0.8-1.2h-0.5l-0.2 0.2-0.2 0.3h-0.5l-0.2-0.5-0.1-0.4-0.5-0.4-0.5-0.3v-0.5h0.7l0.5-0.5 0.5-0.6h-0.9l-0.8 0.8h-0.2l-0.6-1.6v-0.7l0.7-0.3 0.8-0.2h-2v-0.5l0.8-0.7 0.7-0.7h0.6v1l0.1 1.2v0.9h0.4l0.5 1 0.4 1-0.5 0.3-0.5 0.4h0.6l0.2-0.3 0.2-0.2h0.5l0.1 0.4 0.2 0.5 2.4 2.2 1 0.3 1.2 0.4 0.8 0.8-0.8 2h-0.6zm2-2.7-1.2-0.4-1-0.6-1.2-0.7-1.3-1.7-1.4-1.7-0.4-0.8-0.3-0.8-0.4-3.2 0.5-1.6 0.4-1.5 0.8-1.1 0.8-1.2 1.1-0.8 1.1-1 1-0.4 1-0.5 1.3-0.1 1.2-0.2 0.4-0.2 0.5-0.2 2.8 0.8 0.8 0.6 0.8 0.5 2 2 1 1.5 1 1.6v5l-1.4 2.8-1 1.2-1.2 1.2-1.5 0.7-1.5 0.8-1.8 0.2-1.7 0.1zm4.4-1.4 1.4-0.3 1.2-0.9 1.2-0.8 1.2-1.4 0.3-1 0.4-0.8-0.1-0.2-0.2-0.1-1.9-0.2-2-0.2-1.5-0.2-1.6-0.2-0.5-0.2-0.4-0.3-0.5 0.2-0.4 0.2-2-0.1h-2.8l-0.8-0.1v-0.6l-0.2-0.6h-0.5l-0.1 0.5-0.2 0.6h-0.4v0.8l0.7 1.7 0.8 1.6 1.1 1 1.2 1 2.6 1h2.7zm1.6-2.2-0.1-0.1v-1.4h-0.6v1.4h-2l-0.1-0.8v-0.9l-0.2 0.8v0.7h-4.9l-0.8-0.2-0.7-0.1v-1.5l0.2-0.4 0.1-0.5h1v1.2l0.4-0.4 0.4-0.3 0.8 0.6v-0.2l0.1-0.3 6.4 0.6 0.6 0.7 0.6 0.6-0.3 0.4-0.3 0.3h-0.4zm2.5-4.5v-0.3h-0.6l0.2 0.3 0.2 0.2h0.2zm2-2v-1.4l-0.6-1.2-0.5-1.2-2-2.2-2.2-1-1-0.3-1.1-0.3h-1.7l-1.7 0.6-1.6 0.5-1.2 1-1.1 1-0.7 1-0.6 1.2-0.3 0.8-0.2 0.8h0.8l0.5 0.4 0.5 0.5h1.5l0.6 0.4 0.2-0.2 0.1-0.3 0.3 0.2 0.3 0.1 2 0.2h2.2l0.3-0.2 0.4-0.3 0.2 0.6h0.7l0.6 0.2h2.3l2.4 0.2 0.1 0.2 0.2 0.1h0.5zm-6.8-1.2-1.1-0.3-0.1-0.2-0.1-0.3-0.8 0.8-0.3-0.2-0.2-0.1h-2.7l0.2-1 0.1-1v-0.5h1.1l0.2 0.4 0.2 0.5h2.4l1.5 0.1 1.6 0.1 0.8 0.5 0.7 0.6v0.4l-0.5-0.2h-0.5l-0.7 0.7h-0.6l-1.2-0.2zm6.2 10.5-0.1-0.2h-0.5l-0.5 0.2v-0.7l0.8-1 0.5-0.6 0.5-0.5v-0.6l0.4-0.1 0.4-0.2v-1l0.4-0.2 0.4-0.1 1.6 0.8v1.1h-1.3v0.4l0.1 0.5-0.6 0.1h-0.6l0.6 0.8-0.4 0.8h-0.4l-0.6-0.8h-0.6l0.5 0.6 0.4 0.5-0.1 0.2-0.2 0.3h-0.5zm3-4-0.2-0.2h-0.5l0.1 0.3 0.2 0.3h0.5zm-0.7-2.3v-0.5h1.1l0.5 0.3 0.5 0.2-0.1 0.3-0.2 0.2h-1.8zm-21.6-3.2-0.9-0.2h-0.1v-1l0.2-0.7 0.5 0.3 0.4 0.2h0.7l-1.2-1 0.4-0.6 0.7 0.2 0.6 0.1-1.2-1 0.3-0.5 0.3-0.6h0.6l-0.2-0.3-0.1-0.2 0.8-0.6 0.4 0.1 0.4 0.2v-0.5l-1-0.4 0.6-0.4 0.6-0.5v-0.4l0.4-0.2 0.4-0.1 1.2 1 0.1-0.2 0.2-0.1-1.2-0.8 0.2-0.4 0.1-0.4h0.6l0.4-0.4 0.5-0.4 0.7 0.5 0.7 0.4v1l-0.3 0.2-0.4 0.1-0.4-0.5-0.5-0.6h-0.3v0.8h0.5v0.7l-1 1-1.1 0.8h-0.5l-0.4-0.2 0.4 0.4 0.3 0.4-0.7 1.1-0.7 1v1.1l-0.2 0.1-0.1 0.2v1.5h-0.9zm20.7-3.7 0.2-0.2h0.2v0.5h-0.6zm-0.7-0.9v-0.4l-1-1h-0.6l-0.1-0.5-0.2-0.4 0.6-0.6 0.6-0.7h1.1l-0.2 0.7-0.1 0.7h0.7l0.2 0.4 0.2 0.5 0.3 0.2 0.4 0.2v0.5l-0.4 0.4-0.5 0.4h-1zm-4.2-3.5 0.3-0.6v-0.9l-0.6 0.6-0.5 0.7-0.2-0.3-0.1-0.3-0.4 0.1-0.4 0.2-0.6-0.6-0.4 0.3-0.4 0.2h-0.4v-1.4l-0.2 0.4-0.1 0.5h-0.8l0.1-0.4 0.2-0.5-0.4-0.6-0.1 0.8-0.2 0.8-1.1 0.2-1.1 0.3-0.3-0.3-0.2-1-0.3-1 0.5-0.2 0.4-0.2 1 0.8 0.5-0.5 0.4 0.1 0.3 0.1 0.6-0.3 0.5-0.2 0.2 0.2 0.1 0.3 0.5-0.2 0.5-0.1 0.2 0.4 0.1 0.4 0.6-0.2 0.5-0.1 0.3 0.4 0.2 0.5 0.4-0.3 0.3-0.3 0.8 0.4 0.9 0.5v1.1l-0.7 0.7h-1.2zm0 21.8 0.3-0.4-0.1-0.4-0.2-0.4-0.7 0.1-0.8 0.2-0.6 0.6 0.1 0.5 0.2 0.4 0.7-0.1 0.7-0.2zm9.6 0 0.2-0.5-0.2-0.2-0.1-0.3h-0.5v1.6h0.5zm-0.7-15-0.1-0.4v1.3l0.2-0.6zm4.3-6.9v-0.2h-0.2l-0.2 0.2-0.1 0.3h0.5zm37.3 23.3v-0.2l0.3-0.2 0.3-0.1-0.2-0.8-0.2-0.7v-0.4l-0.2-0.5h2l0.4 0.3 0.5 0.3v0.9l-0.9 0.8-0.9 0.9h-1.1zm1.9-1.7v-0.1l-0.3-0.2-0.2-0.1v0.5h0.5zm-30.5 1-0.5-0.5v-1.1l0.3-0.3 0.4-0.3h0.8l0.5 0.5 0.4 0.5v0.8l-0.6 0.4-0.6 0.5h-0.3zm1.1-1v-0.4h-0.8v0.8h0.8zm-6.5 0.8 0.2-0.4v-2.2l0.9-0.1h1v0.2l0.2 0.3-0.6 0.6v0.9l0.8 0.6v0.5h-2.7zm1.2-1.9v-0.4h-0.5v0.8h0.5zm8.8 1.1v-1.2h0.4l0.4 0.4h1.4v1.3l-0.1 0.7h-2.1zm4.6 0.5-0.2-0.6 0.3-0.6 0.3-0.5h0.9l0.8 0.1v2.1l-2 0.2zm5 0.3-0.4-0.4v-0.8l0.5-0.5 0.6-0.5 1.2 0.4v0.7h-1.2v0.7l0.5-0.1 0.6-0.2-0.2 1h-0.6l-0.5 0.1zm5 0-0.4-0.4v-1l0.5-0.4 0.4-0.5h0.5l1 0.6v1.7l-0.4 0.2-0.2 0.2h-0.9l-0.4-0.4zm1.3-1-0.3-0.3-0.2 0.2-0.2 0.1 0.4 0.6 0.3-0.2 0.2-0.1zm3.4 0.9-0.3-0.5 0.3-0.7 0.2-0.7h1.1l1.2 0.1 0.2 0.8 0.3 0.7-1 0.8h-1.8zm10.2-0.3 0.1-0.7-0.3-0.2-0.2-0.2v-0.5h1.6l-0.1 0.4-0.2 0.3 0.5 0.2 0.5 0.1v1.1l-0.6 0.1-0.6 0.2h-0.9zm43.5-2.8-0.3-0.4 0.1-0.4 0.2-0.4 1 0.1 1 0.2h1.2v0.5l-1 0.4-0.9 0.4h-1zm-63-10-0.5-0.2 0.2-1.2 0.1-1.2-0.3 0.1-0.4 0.1v1.3h-1.2l-0.5-0.1v-2.1l0.4-0.1 0.5-0.2 1.6 0.2 1.5 0.2 0.1 0.3 0.2 0.4-0.6-0.2-0.5-0.1-0.2 0.2-0.1 0.3 0.2 0.1 0.3 0.2 0.5-0.1 0.5-0.2 0.2-1 0.6-0.1 0.6-0.2 0.5 0.6 0.5 0.5-0.2 0.4-0.1 0.5-0.8 0.6h-0.4l-0.4-0.4-0.5-0.4-0.5 0.5-0.5 0.4v1h-0.4l-0.5-0.2zm3.4-2.3v-0.5h-0.7l-0.2 0.2-0.1 0.3 0.1 0.3 0.2 0.2h0.7zm-20.6 1.8 0.3-0.3v-1.7l-0.6-0.4-0.5 0.7-0.5 0.6 0.2 0.3 0.1 0.3h-1.1v-1l-0.3-0.2-0.2-0.1v-1h4l0.4 0.2 0.3 0.3 0.5-0.3 0.6-0.4 0.4 0.3 0.5 0.3v0.7l0.2 0.7h0.8l-0.1-1-0.2-0.8h1.8l0.2 0.9 0.1 1 0.4-0.4 0.4-0.3-0.1-0.6-0.2-0.6h1.5l0.1 1 0.2 1.1-0.4 0.2h-6l-0.3-0.3-0.3-0.2-0.7 0.3-0.6 0.4 0.2 0.6h-1.5zm1.6-1.5v-0.5l-0.3-0.2-0.2-0.1-0.2 0.3-0.1 0.2 0.2 0.8h0.6zm32.1 1.3-0.1-0.2 0.4-0.7 0.5-0.7-0.2-0.5-0.1-0.5h1.5l0.1 1.3 0.2 1.4-0.2 0.1-0.1 0.2-0.2-0.4-0.3-0.4-0.5 0.3-0.6 0.4h-0.2zm1.5-1.3v-0.3h-0.2l-0.2 0.3-0.2 0.2h0.6zm-42.5-0.5v-1.5h0.9l0.8-0.2 0.2 0.8 0.2 0.7v0.3l0.1 0.3-0.6 0.8-1.6 0.2zm17.1 0.8v-0.8l-0.2-0.4-0.1-0.5 1.1 0.1h1.1v2.2h-1l-0.9 0.2zm12.6 0.6-0.2-0.2v-1h-0.5v-1h6.7l0.2 2-0.5 0.2-0.4 0.1h-1.4l-1.3-0.2h-0.8v-0.8l0.2-0.8h-0.3l-0.5 0.4-0.6 0.5v0.6l-0.2 0.2-0.2 0.1zm4.3-1v-0.4l-0.3-0.2-0.2-0.2-0.3 0.3 0.2 0.6 0.1 0.5h0.5zm2.7 0.9-0.4-0.3 0.8-0.8-0.5-0.4-0.5-0.3v-0.3h1.6l-0.1 0.3-0.2 0.4 0.6 0.2 0.5 0.1v0.8l-0.5 0.3-0.5 0.2h-0.4zm7.3-0.3-0.5-0.5 0.2-0.7 0.2-0.6h1.5l0.1 0.2 0.2 0.3-0.2 0.6-0.2 0.7-0.4 0.3-0.5 0.2zm0.9-0.6-0.3-0.3-0.1 0.2-0.2 0.1 0.2 0.3 0.1 0.3 0.3-0.2 0.3-0.1zm1.3 1v-2.5l1 1.2 0.2-0.4 0.1-0.4h0.6v2.1h-1l-0.9-0.1zm14.8 0v-0.2l0.6-1-0.5-0.5-0.4-0.5h0.6v-0.8h0.7v2.2l0.2 0.5 0.2 0.4h-1.4zm2.7 0-0.4-0.1v-2.1h1.9l-0.1 1v1.2h-1zm2.3-0.2v-0.5l0.3-0.2 0.2-0.1 0.3 0.3 0.3 0.4-0.2 0.2-0.2 0.1h-0.7zm-17.5-0.3-0.2-0.5 0.2-0.6 0.1-0.6h1.6l0.1 0.4 0.2 0.4-0.2 0.6-0.1 0.7h-1.6zm1.4-0.7v-0.5h-0.8l-0.2 0.4-0.1 0.4 0.3 0.3 0.4 0.2 0.2-0.2h0.2zm9 0.5v-0.5h-0.5v-1h1.5l0.4 0.6-0.5 0.3-0.4 0.4 0.1 0.4 0.2 0.4h-1zm9.2-0.1-0.2-0.2v-0.7h1.5l0.3 0.3 0.3 0.4-0.3 0.3h-1.5zm-41.8-6-0.4-0.4-0.8-0.1-0.7-0.1v-1l-0.4-0.1-0.4-0.2 0.2 0.4 0.1 0.4-0.6 0.6h-1.6v-2.4h1.3l0.4 0.3 0.4 0.2 0.3-0.1 0.4-0.1v-1.1l0.6 0.2 0.4 0.9 0.5 0.8h0.6v0.7l0.3-0.8 0.1-0.8h1.3v0.7l0.1 0.7 0.4 1-0.3 0.2-0.4 0.2-0.2-0.3-0.2-0.4-0.5 0.5-0.5 0.4zm1.3-1.6-0.1-0.3v1-0.2l0.2-0.1zm47.7 1.7-0.4-0.3h0.7v-1l-0.2-1h-0.5v0.9l-0.2 0.8h-1.8v-2.4h3.7l0.8 0.4v1.4l-0.7 0.7-0.8 0.7h-0.2zm-1.4-2-0.1-0.3v1.3-0.3l0.2-0.3zm3 0.5 0.2-0.3-0.2-0.4-0.3-0.4-0.4 0.5-0.5 0.5 0.4 0.2 0.4 0.3h0.3l0.2-0.4zm5.9 1 0.3-0.8h1l0.1-0.4 0.1-0.5-0.4-0.1-0.5-0.2-0.2 0.6-0.3-0.3-0.4-0.2-0.4 0.1-0.4 0.2v0.7l0.6 0.2-0.3 0.4-0.3 0.3-0.2-0.4-0.2-0.5h-0.4v0.8h-0.8v-2.4h4.1l0.4 0.6 0.8-0.6 0.6 0.2 0.6 0.1 0.2 1.4h0.5l0.1-0.8 0.1-0.9h1.3l1.2 0.1 1-0.4 0.5 0.3 0.5 0.4 0.2-0.3 0.2-0.4 1 0.2 0.9 0.2v2l-0.3 0.2-0.2 0.2-0.4-0.3-0.4-0.4v0.6h-0.8l0.1-0.6 0.1-0.7h-0.3l-0.3 0.6-0.2 0.6h-1.8v0.7h-0.7l-0.6-0.6h-1.7l-1.7-0.1-0.2-0.2-0.3-0.1-1.2 0.6v0.3l0.1 0.2h-0.5l-0.6 0.2zm7-0.9v-0.2h-0.2l-0.1 0.2-0.2 0.3h0.6zm1.2 0 0.2-0.2h-0.5v0.5h0.2zm-2 0v-0.2l-1-0.2v0.4h1.1zm-71.9 1-0.7-0.2-0.3-0.4-0.3-0.5v-0.9l0.8-0.4 0.8-0.5 2 0.4h1.2l0.3 0.3 0.3 0.2-0.1 0.3-0.2 0.2-0.5-0.1-0.5-0.2v0.5l0.2 0.5 1.2-0.2-0.3 0.4-0.4 0.4h-2.3l-0.6 0.2h-0.7zm39.7-0.1-1-0.1v-2.4l0.5 0.1 0.4 0.1-0.1 0.7v0.7l0.2 0.2 0.2 0.1v-1.9h0.8l-0.2 0.8v0.8l0.2 0.4 0.3 0.4h-0.2l-0.2 0.2-1-0.1zm56.8 0-0.2-0.3 0.2-0.4 0.1-0.5-0.5-0.3-0.5-0.4 0.6-0.6h0.8l0.8 0.2v0.5l0.1 0.4-0.4 0.4-0.5 0.3 0.4 0.2 0.3 0.2-0.4 0.3-0.3 0.2h-0.4zm2.1 0-0.1-0.2v-0.8l-0.1-0.8v-0.6l0.7-0.7 0.6-0.7h0.8l1.4 1.4-0.2 0.6h-0.5l-0.5-0.2h-1.3l-0.3 1.1-0.3 1.2zm-110.8-0.5v-0.5l-0.1-0.6-0.2-0.5h4l0.2 0.3v0.3l0.2 0.7 0.2 0.8-2-0.2-0.2-1.2-0.2 0.1-0.3 0.2v1h-0.5v-0.8h-0.5v0.8h-0.6zm4.9-0.6v-1.1l0.6-0.2 0.6-0.1 0.5 0.4 0.5 0.5 0.2-0.4 0.1-0.5h1.3l0.6 1.2-0.2 0.6-0.3 0.6h-1.2l-0.8-0.8-0.7-0.8h-0.5v1.6h-0.7zm3.6 0.1v-0.4l-0.3-0.1-0.3-0.2-0.2 0.3-0.2 0.4 0.2 0.4h0.8zm15.7 0.3-0.4-0.7 0.4-0.5 0.5-0.6 2.4 0.4 0.4 0.4 0.3 0.4v-0.9h0.5l0.4 0.2v0.7l-0.1 0.8 0.3-0.2h0.4l0.2-1.6h1.4l0.1 1.1v1.1h-0.6l-0.3-0.3-0.3-0.2-0.2 0.2-0.1 0.3h-3l0.4-1.6h-0.5l-0.6 1.6h-1.1zm1.3-0.3 0.2-0.4-0.3-0.1-0.2-0.2-0.3 0.2-0.3 0.1v0.8h0.8zm6.2 0.5-0.5-0.4v-0.2l0.3-0.7 0.3-0.6h1.9l2 0.2h0.2l-0.1 1-0.1 1.1h-0.7v-0.8h-0.6v0.9l-0.2-0.2-0.3-0.2v-1.4l-0.5 0.9-0.6 0.8h-0.7zm1.1-0.4v-0.2h-0.8v0.5h0.8zm3.7 0.6v-0.2l0.4-0.3 0.3-0.3-0.4-0.6-0.3-0.6 0.3-0.2 0.3-0.1v-0.5h0.2l0.3-0.2v1.3l0.1 1.3h0.6l0.6 0.1v-1.4l0.3-0.2 0.4-0.2h1.2v2.2h-4.3zm7-0.2 0.3-0.5v-1.4h3.6l-0.1 0.4-0.2 0.3 0.6 0.2 0.5 0.2v0.5l-0.2 0.6h-1l-1 0.2v-0.6l0.3-0.1 0.3-0.2v-0.7l-0.5-0.2-0.4-0.1-0.4 0.6 0.2 0.4 0.1 0.4-0.4 0.2-0.3 0.2h-1.5l0.2-0.4zm10.1 0.3-0.1-0.2 0.6-0.8-1-0.8 0.4-0.2 0.5-0.3-0.2-0.4-0.1-0.4h0.3l0.3 0.2v0.5l0.3 0.4 0.4 0.4 0.4 1.2h0.7v-0.9l0.1-0.4v-0.4l0.6-0.1h0.6v1.5l0.4 0.8h-0.9l0.1-0.6 0.2-0.7-0.3-0.1-0.2-0.2-0.1 0.8v0.7h-1.4l-1.4 0.1zm4.5 0-0.1-0.2 0.4-0.6 0.1-0.7 0.1-0.6h3l3-0.2 0.4 0.7 0.4 0.8-0.2 0.4-0.3 0.4h-3.3l-3.3 0.1zm2.7-1 0.1-0.4-0.4-0.1-0.4-0.2v1.3h0.3l0.3-0.2zm2.7 0v-0.5h-0.7l-0.4 0.6 0.2 0.2 0.2 0.3h0.7zm9.6 0.7-0.4-0.3 0.2-1.2 0.4-0.3 0.5-0.2 0.4 0.1 0.4 0.2v1.5l-0.6 0.6h-0.6zm1.1-0.4 0.2-0.2h-1.1l0.1 0.2 0.2 0.3h0.5zm-0.2-1h-0.5l-0.3 0.2h1l-0.2-0.1zm16.2 1.7v-0.3l0.6-1-0.6-0.8 0.3-0.3 0.3-0.4-0.2-0.2-0.2-0.1h0.9v2.6h0.5v0.5zm2.3-0.3 0.1-0.4v-1.3l0.7-0.3 0.6-0.2 0.4 0.1 0.4 0.2v2.3h-1.3l0.2-0.4 0.1-0.4h-0.5v0.7h-0.4l-0.5 0.2zm5.2-0.8v-1.2h2.1v1.5l-0.8-1-0.3 0.2-0.2 0.2v1h0.5v0.5h-1.3zm2.4 0.9-0.1-0.4v-0.8l0.2-0.7h1.6v0.6l0.1 0.7 0.3 0.3 0.2 0.3-0.3 0.3h-1.8zm3 0.2-0.4-0.2 0.1-0.2 0.2-0.3 0.6 0.2 0.7 0.2v-0.5l-0.6-0.3-0.6-0.2v-0.4l-0.2-0.3h1.6l0.2 0.7 0.2 0.6-0.2 0.4-0.1 0.4h-1.3l-0.3-0.1zm1-1.5 0.2-0.2h-0.6v0.5h0.2zm1.5 1-0.3-0.8 0.5-0.5 0.6-0.5 0.6 0.2 0.7 0.3-0.2 1-0.2 0.8h-0.7l-0.6 0.2zm1.4-0.3-0.3-0.2 0.1-0.3 0.2-0.4h-0.8v1.2l0.3 0.1 0.3 0.2 0.5-0.5zm-29.1-5.9-0.4-0.1 0.3-0.3 0.2-0.3-0.2-2h-0.5v1.9h-4.5v-1.1l-0.2-1h1.8l1.7-0.1h1.7l1.6-0.1 0.3 0.4 0.2 0.4 0.7-0.6 0.6-0.7 0.4 0.3 0.3 0.3h1.3l1.2-0.2 0.2 0.3 0.1 0.2 0.8-0.6 0.6 0.3 0.7 0.3v0.6l0.1 0.6h0.4l0.4 0.2-0.2-1-0.1-1h1.9v0.4l0.2 0.4 0.7-0.4 0.8-0.4 0.4 0.2 0.4 0.1 0.2 0.4 0.2 0.5-0.4 0.6-0.3 0.7-0.7-0.1h-0.7l-0.2-0.6-0.3-0.5-0.7-0.1h-0.8l0.2 0.6 0.2 0.7h-2.3l-2.2-0.1-0.3-0.5-0.3-0.4v1h-1.1l0.2-0.9 0.1-0.9-0.8 1.8h-1.2l-0.6-0.6-0.7 0.4-0.7 0.3v0.4l0.1 0.3-0.2 0.1h-0.3zm-2.5-2v-0.8l-0.2 0.6-0.2 0.7v0.2l0.2 0.2h0.2zm6.1 0.1v-0.5h-0.8v0.7l0.2 0.2 0.2 0.1h0.4zm3.5 0v-0.5h-0.5l-0.2 0.2-0.2 0.3 0.2 0.3 0.2 0.2h0.5zm6.3 0v-0.5h-0.7l-0.2 0.1-0.1 0.2 0.1 0.4 0.2 0.3h0.7zm-101.2 1.2-0.2-0.2 0.4-1.8h0.7l0.1 0.3 0.2 0.4v-0.7h0.8v0.8l-0.3 0.1-0.3 0.2 0.2 0.2 0.2 0.3h0.4l0.2-0.8 0.1-0.7 0.5-0.2 0.6-0.1 0.8 0.6v1l-0.2 0.9h-4.1zm3.8-1v-0.5h-0.7l-0.4 0.6 0.7 0.7 0.4-0.2zm1.1 0.1v-1h0.5l0.3 0.5 0.3 0.4 0.2-0.4 0.3-0.5 0.3 0.1 0.2 0.2v1.6l0.6-0.4-0.2-0.4-0.1-0.4 0.4-0.6 0.3-0.6h0.6l0.5-0.2 0.1 0.6 0.2 0.6 0.7-0.4 0.7-0.3 0.5 0.2 0.5 0.3v0.5l-0.3 0.6-0.2 0.7h-1.1l-0.8-1.2v0.6l-0.1 0.3v0.4h-4.3v-1zm8 1-0.7-0.1v-2h2l-0.1 1-0.2 1-0.2 0.1-0.2 0.2-0.7-0.2zm2 0v-0.2h0.6v-1.3l-0.3-0.2-0.4-0.1 0.4-0.2 0.3-0.1v-0.9h0.4v2.2l0.4 0.3 0.2 0.3-0.1 0.2-0.2 0.2h-1.2v-0.2zm3.4-0.1-0.4-0.4v0.5h-1l0.6-2h0.8l0.8-0.1v2.1l-0.2 0.2-0.2 0.1zm13 0v-0.5l-0.3 0.3-0.3 0.2h-2l-2 0.1-0.2-0.2-0.2-0.3-1 0.6-0.5-0.2-0.5-0.3v-0.6l-0.1-0.5 0.4-0.6 0.3-0.5 0.7 0.3 0.7 0.4v1.4h0.4l0.3-0.2v-1.3l0.1-0.4h0.8l0.7 0.2v0.8l0.2 0.8 0.3-0.9 0.4-0.9h0.9l0.4 0.3 0.4 0.2 0.7-0.2 0.6-0.3 0.6 0.2 0.6 0.1v1l-0.2 0.9-0.2 0.1-2 0.4v-0.3zm-5.7-0.6 0.2-0.2-0.3-0.4-0.2-0.3-0.3 0.1-0.3 0.2v0.8h0.8zm5-0.2v-0.4l-0.3-0.1-0.3-0.2-0.3 0.3 0.2 0.4 0.1 0.4h0.6zm81.3 1-0.2-0.3h-0.8l-0.8-0.2v-2h0.4l0.4-0.2 0.7 0.2 0.7 0.1v1.1l0.1 0.8 0.2 0.7h-0.4zm-0.9-1.5v-0.5l-0.6 0.6 0.2 0.2 0.2 0.3h0.2zm-89 0.6-0.1-0.9 0.2-0.3 0.3-0.3 0.7 0.1 0.8 0.2v1l-0.2 0.9h-0.7l-0.8 0.1zm1.2-0.4-0.6-0.4v0.6h0.6zm11.2 0.8-0.4-0.4v-0.6l0.1-0.5 1-0.6 0.4 0.3 0.5 0.3v0.6l0.2 0.6-0.4 0.3-0.3 0.4h-0.7zm2.2-0.4v-1.4h1l1-0.1-0.2 1v1.3h-0.9l-0.9 0.2zm3 0.2 0.2-0.6-0.2-0.4-0.3-0.3 0.3-0.5 0.4-0.5h0.2v1l0.1 1.2 0.3 0.3 0.3 0.4h-1.6zm2-0.4 0.1-1 0.4-0.4h0.6l0.6 0.2v2l-0.9 0.1h-1l0.2-1zm4.7 0.8-0.2-0.3 0.2-0.3 0.3-0.4-0.1-0.4v-0.4l0.3-0.2 0.4-0.1 0.8 0.2v0.8l0.2 0.8-0.3 0.2-0.2 0.3h-1.2zm1.2-0.6v-0.2h-0.5v0.5h0.5zm1.2 0.6-0.1-0.1v-1.7l0.8-0.4 1 0.6v1l0.1 0.4v0.3h-0.8l-0.8 0.1zm2.3-1v-1.1h1.8v0.3l-0.2 0.5-0.1 0.5 0.6 0.6 0.4-0.3 0.5-0.3-0.2-1.4h0.7l0.8 0.2v1.5l0.4 0.1 0.3 0.2-0.1-1-0.2-1h0.8v0.9l0.3-0.4 0.4-0.4h1.8v1h0.5v-0.9l0.4-0.1 0.3-0.1v1.9l0.1 0.4h-0.4l-0.5 0.2v-0.6l-0.7-0.7-0.6-0.7v1.7h-1.9l-1.6 0.2v-1.4l-0.2 0.6-0.2 0.7h-0.9l-1-0.2v-0.5h-0.6v0.8h-0.7zm6.8 0v-0.3l-0.2-0.2-0.3-0.1-0.1 0.2-0.2 0.3 0.2 0.3 0.1 0.2h0.5zm5.3 0.7 0.3-0.6-0.1-0.6-0.2-0.7h0.9l-0.2 0.4-0.1 0.4 0.2 0.2 0.3 0.2 0.1-0.6 0.2-0.6 0.2 0.1h0.3v2.4h-0.6v-1.1h-0.4l-0.2 0.5-0.1 0.5h-0.9zm15.6 0.3h-0.7v-2.1h1.9v1l0.2 1-0.4 0.1-0.3 0.1h-0.7zm-17.9-0.7-0.1-0.7 0.8-0.8 0.7 0.1 0.6 0.2v0.5l-0.2 0.7-0.3 0.7h-1.3zm1.4 0.1 0.1-0.2h-1.1l0.2 0.2 0.2 0.3h0.4zm-0.2-1h-0.5l-0.4 0.2h1l-0.1-0.1zm3.8 0.5v-1h0.4l0.2 0.5 0.2 0.6 0.2-1.2h0.9l-0.2 0.5-0.2 0.4v1.3h-0.5v-0.8h-0.8l0.1 0.4 0.2 0.4h-0.5zm2.3 0.1v-0.8h0.8l-0.2 0.7-0.1 0.6h0.6l0.4-0.6v-0.8h0.3l0.2-0.2v2.2h-2v-1zm2.8 0.4 0.5-0.5-0.6-0.6v-0.4h2.2l0.3-0.1h1.2v0.4l-0.2 0.3 0.5 0.4 0.5 0.3-0.6 0.8h-1.6l0.2-0.3 0.3-0.3-0.2-1h-1.3v0.9l0.3 0.3 0.3 0.4h-0.8l-0.2-0.4-0.1-0.3-0.2 0.3-0.1 0.4h-0.9zm34 0.2-0.3-0.4 0.2-0.7 0.1-0.7 0.4-0.1 0.4-0.2 0.7 0.3 0.6 0.3v1.1l-0.3 0.3-0.3 0.4h-1.2zm1.5-0.8 0.1-0.4h-1.1v1.1l1-0.2zm1.5 0.8-0.3-0.3v-1.4l0.4-0.4 0.4-0.5h1.3l-0.2 0.4-0.2 0.3v2.1l-0.6 0.1h-0.5zm1.2-0.6v-0.2l-0.2-0.4-0.3-0.4-0.6 0.6 0.2 0.4 0.2 0.5 0.6-0.2zm3.7 0.3-0.3-0.6 0.2-0.5 0.1-0.4 0.5-0.1 0.4-0.2 0.6 0.3 0.7 0.3v0.9l-0.2 0.8-0.8 0.1h-0.9zm1.5-0.1-0.2-0.3h-0.7v0.5h1.1zm-0.1-0.8v-0.3h-0.8v0.5h0.8zm1.3 1-0.2-0.6 0.1-0.4 0.2-0.3 0.5-0.3 0.5-0.2 0.5 0.3 0.6 0.3-0.6 0.6-0.3-0.4-0.2-0.4-0.6 0.6 0.1 0.4 0.2 0.5 0.5-0.2h0.5v0.7h-1.5zm2.4-0.6v-0.4l0.5-0.2 0.5-0.1 0.7 0.2 0.7 0.1v0.8h-2.5zm-86-6.1v-1.2h-0.4l-0.5 0.4-0.4 0.3v0.9h-0.8v-1l-0.6-0.6 0.1-0.3 0.2-0.4h1.9l1.9 0.1 0.2 0.3 0.3 0.3 0.5-0.4 0.5-0.5 1 0.4 0.2 0.7 0.1 0.6-0.4 0.5-0.5 0.5-0.6-0.3-0.5-0.4-1.4 0.6v0.7h-1l0.1-1.2zm1.4-0.7v-0.4h-0.4l-0.5-0.1v1.1l0.5-0.1h0.4zm2.2 0v-0.4h-0.8l-0.2 1 0.5-0.1h0.5zm3.7 1 0.2-1-0.2-0.4-0.2-0.5v-0.3h1.2l0.5 0.2 0.4 0.2 0.5-0.3 0.6-0.3 0.4 0.3 0.4 0.4v0.9l0.6 0.6-0.4 0.2-0.5 0.1-0.9-0.1-1-0.2-0.2 0.6-0.3 0.5h-1.2l0.1-1zm1.4-0.8v-0.7h-0.8v1l0.2 0.1 0.2 0.2h0.4zm4.8 1.3-0.3-0.6-0.5 0.4-0.6 0.3-0.3-0.3 0.3-0.6 0.3-0.5v-0.7l0.2-0.7h1.3l-0.2 2h0.5l0.1-0.8 0.1-1h1.5l0.3 0.8 0.4 0.9-0.2 0.3-0.3 0.3-0.8-0.2h-0.8l-0.3 0.4-0.4 0.5zm-0.4-1.8-0.1-0.3v1l0.1-0.2 0.2-0.1zm13.5 0.6v-1.6h1.4l0.4 0.6 0.4 0.5 0.3-0.5 0.3-0.6h0.8l0.6 0.6 0.6 0.5-0.1-0.5-0.1-0.6h4.7v1.1l-0.1 1.1h-2v-1.5l-0.4-0.1-0.3-0.1v1.9h-0.9l0.2-0.6 0.2-0.5h-0.4l-0.3 0.2v0.4l0.1 0.5h-0.3l-0.4-0.5-0.4-0.4-0.2 0.4-0.3 0.5h-1l-0.3-0.5-0.2-0.4-0.5 0.4-0.4 0.5h-0.8l0.1 0.4 0.2 0.4h-0.9v-1.7zm1.6 0 0.1-0.3-0.6-0.8-0.5 0.5 0.1 0.4 0.2 0.4h0.5zm2.1-0.2 0.2-0.4-0.6-0.6-0.6 0.6 0.1 0.4 0.2 0.4h0.6zm16.3 0.8v-0.6h1l0.4 0.6-0.5 0.3-0.5 0.4h-0.4zm4.2 0.2v-0.5l0.6-0.4-0.1-0.7-0.2-0.8h1.8l-0.1 0.7-0.1 0.6 0.1 0.5 0.2 0.4 0.4-0.4 0.5-0.4v-1.5l0.8-0.1 0.7-0.1v0.6l-0.1 0.6v0.9l0.5-0.1 0.3-0.2 0.2-1.6 0.9-0.1 0.8-0.1v0.5l-0.2 0.2-0.3 0.2 0.3 0.5 0.2 0.4v0.6h-1v-0.9l-0.4 0.5-0.3 0.4h-2.4l-0.5 0.4-0.6 0.4-0.6-0.6-1 0.6h-0.4v-0.4zm3.6-1.4-0.1-0.3v1.3l0.1-0.4 0.1-0.3zm-2.4-0.3-0.1-0.3v1.3l0.1-0.3 0.2-0.3zm-83.3 1.3-0.7-0.7v-0.5l-0.1-0.2v-0.2h2.2v2.1h-0.7zm2 0.5v-2l0.4-0.2 0.6-0.2 1 0.4v0.9l0.3-0.6 0.2-0.6h1.8v1.3l0.1 1.1h-1.1l0.2-0.4 0.1-0.4h-0.5v0.8h-2.9l-0.1-0.1zm5-0.1v-0.3l0.2-0.1 0.3-0.2v-1h-0.4l-0.3-0.2 0.6-1h0.7v1.1l-0.1 1.1 0.3 0.2 0.2 0.1v0.5h-1.3zm2.2 0-0.1-0.2 0.2-0.4 0.3-0.3-0.5-0.5-0.4-0.5h0.1l0.1-0.2h1.2l1.2-0.2v2.4h-2zm5.1 0v-1.2h-1.1v-0.8h0.5l0.5-0.1 0.6-0.2 0.6-0.1 0.8 0.8v0.5l-0.2 0.1-0.3 0.2-0.2-0.3-0.1-0.2h-0.6l0.2 1.4h-0.3l-0.3 0.2v-0.2zm2.4 0.2v-1.2l-0.1-1 0.7-0.2 0.8-0.2 0.2 0.1 0.3 0.2v1l-0.3 0.1-0.2 0.2-0.2-0.3-0.1-0.2h-0.6l0.2 1.4h-0.3l-0.4 0.2v-0.2zm2.7-0.3v-0.5h1.1l-0.1 0.4-0.1 0.3h-0.5l-0.4 0.2zm4.2 0.3v-1.6l-0.1-1.5h0.8l0.8-0.2h0.3l0.2 0.2v3h-0.5l-0.4 0.2 0.2-1 0.1-1.2-0.2-0.4-0.2-0.5-0.2 1.4-0.1 1.5h-0.4l-0.3 0.2v-0.2zm12.6-0.2-0.1-0.2v-1l-0.2-1h1.9v0.5l0.1 0.6h-0.5v-0.3l-0.2-0.3-0.6 0.4 0.2 0.5 0.3 0.5v0.2l-0.4 0.2-0.4 0.1zm62.2 0.1h-0.3l-0.7-0.2-0.6-0.2v-2.3h3.5l0.3 0.3 0.2 0.3 0.2 0.9 0.1 0.8h-1.9v0.5h-0.8zm-0.7-1.7v-0.5h-0.5v1h0.5zm-71.4 1.3-0.3-0.4v-0.9l0.8-0.8h0.5l0.5 0.5 0.6 0.4-0.3 0.8-0.2 0.7h-1.3zm24.4-0.8v-1.2h1.9v2.2h-2zm4.5-0.4v-1.6h1.8l0.1 0.4 0.2 0.3-0.4 0.4-0.3 0.4 0.3 0.7 0.3 0.6v0.2h-0.8v-1h-0.6l0.2 0.5 0.1 0.6h-0.9zm1.2-0.8v-0.4l-0.2 0.2-0.3 0.1v0.5h0.5zm11.9 2v-1h-0.5v-1.1l0.2-0.1 0.3-0.2 1.4 0.6-0.1 0.4-0.1 0.5h-0.4l-0.3-0.2 0.2 0.7 0.1 0.7h-0.8zm1.7-0.1-0.1-0.4v-0.7l0.1-0.8h1.3l0.3 1 0.4 1-0.2 0.1-0.1 0.2h-1.5zm3 0.2v-0.7l0.1-0.4h-0.5v-1.1h3.6l0.3 0.4 0.3 0.3-0.3 0.3 0.6 0.8-0.2 0.3-0.1 0.3h-1.8l-0.2-0.4-0.1-0.5v-1l-1 1 0.4 0.2 0.3 0.2-0.1 0.2-0.2 0.3h-1zm31.5-0.4-0.4-0.5-1.4-0.8h-0.2v1l0.6 0.6h-1.3v-2.4h1.7l0.2 0.5 0.3 0.4 0.5-0.4 0.5-0.5h0.9l0.5 0.7 0.6 0.7v0.5l-1 0.4-0.9 0.4h-0.2zm5.6 0.4-0.5-0.1v-2.1l0.4-0.2 0.5-0.2 0.8 0.6 0.1 0.8v0.8l-0.4 0.2-0.5 0.3zm2.3-0.2-0.4-0.5v-1l0.3-0.4 0.3-0.3h1l0.8 1.4-0.4 0.6-0.4 0.7h-0.8zm1.1-0.8 0.3-0.3-0.8-0.4h-0.5v1.1h0.7zm4 1-0.2-0.2v-0.9l0.1-0.9 0.8-0.4 0.4 0.2 0.5 0.2 0.3 0.9 0.3 0.8-0.4 0.3-0.3 0.2h-1.4l-0.2-0.2zm-25.6-0.7-0.3-0.5 0.6-1.2 0.4-0.2 0.4-0.1 0.5 0.5 0.5 0.6-0.1 0.6-0.2 0.5v0.4h-1.5zm1.3-0.4v-0.6h-0.8v1.1h0.8zm1.3 0.6-0.3-0.3 0.4-2h1.6v0.7l0.1 0.7-0.2 0.7-0.2 0.6h-1zm1.2-1-0.2-0.4h-0.4v0.9l0.1 0.2 0.2 0.2 0.4-0.6zm19.2 0.4v-1.1h1.8v0.1l0.2 0.1-0.2 2h-0.7l0.1-0.5 0.2-0.4h-0.9v0.8h-0.5zm6 0.8-0.3-0.2 0.6-1.8 0.4 0.5 0.4 0.4v1l-0.6 0.2zm-167.5-1.5-0.4-0.4v-0.5h0.8l-0.1-0.8-0.2-0.7-0.2-0.6-0.1-0.5h1.9v0.2l-0.3 1.1-0.2 1.1-0.2 0.8-0.1 0.7h-0.5zm7.6-1.1v-0.8h0.8v1.4h-0.5l-0.4 0.1zm-23 0-0.1-0.3 0.2-0.6 0.2-0.7-0.4-1v-0.4h2.4v2.8l0.1 0.5h-1.1l-1.2 0.2zm2.9-1v-1l0.8-0.2h0.8l0.4 0.4-0.2 1-0.1 1h-1.8zm2.5 0.6-0.3-0.5 0.2-0.6 0.1-0.7 0.5-0.1 0.4-0.2 1 0.6v0.4l-0.3 0.2-0.2 0.2-0.2-0.3-0.1-0.3-0.3 0.2-0.2 0.1v0.8l0.7-0.1 0.6-0.2v0.5l-0.1 0.4-0.7 0.1-0.8 0.1zm3 0 0.2-0.5-0.8-0.2v-1.1l0.8-0.6 0.7 0.5 0.6 0.4v0.8l-0.4 0.1-0.4 0.2 0.1 0.4v0.4l-0.4 0.1-0.5 0.1zm2 0.5v-2.2l0.4-0.5 0.4-0.4 0.3 0.4 0.4 0.4 1.2-0.2 1.3-0.1 0.2 0.5 0.1 0.6-0.3 0.8-0.4 0.8h-0.9v-1l-0.4-0.4-0.4-0.3v0.8l0.2 0.7-2 0.2zm7.7-0.6v-0.7h-0.5v-0.6l0.1-0.5 0.7-0.1 0.6-0.1 0.3 0.3 0.3 0.2 0.3-0.2 0.3-0.3h0.6l0.7 0.2-0.1 0.3v0.3l0.3 0.3 0.4 0.3v0.7l-1.4 0.6-0.4-0.1-0.3-0.2 0.6-1-0.3-0.4-0.3-0.3-0.5 0.5-0.6 0.5 0.1 0.4v0.4l-0.4 0.1-0.5 0.1zm6.8-0.7v-1.3h0.6l0.4 0.6 0.2-0.4 0.2-0.3 0.4 0.3 0.3 0.3-0.6 0.6 0.6 1-0.4 0.4-0.6-0.6h-0.5l0.2 0.2 0.1 0.2-0.8 0.4h-0.1zm10.3 1.2-0.1-0.2v-0.6h0.8v0.8l-0.3 0.1-0.2 0.2zm9.4-0.2-0.4-0.4-1.6 0.6-0.5-0.2-0.4-0.1v-0.9l0.4 0.3 0.3 0.3 0.4-0.2 0.5-0.1v-0.9h-0.7l-0.8-0.1v-0.6l-0.1-0.6 0.6-0.3 0.7-0.3 0.3 0.3 0.3 0.2-0.6 0.2-0.5 0.2v0.4l1.6 0.6 0.4-1.2 0.8-0.6 0.5 0.1 0.4 0.2v0.5h-1.1v0.4l0.6 0.2 0.5 0.2 0.2 0.7 0.1 0.7-0.5 0.3-0.4 0.4h-0.6zm1.2-1v-0.3l-0.5-0.1-0.4-0.1v1.1h0.4l0.5-0.2zm-18.4 0.7-0.3-0.4v-0.5l0.2-0.6 0.4-0.3 0.5-0.3 0.5 0.3 0.4 0.3 0.1 0.6 0.1 0.5-0.6 0.8h-1zm1.2-0.5 0.2-0.5-0.6-0.6-0.6 0.6 0.2 0.5 0.1 0.4h0.6zm1-0.2v-1.1h0.5l0.3 0.6 0.4 0.6 0.1-0.6 0.2-0.5h0.5v0.6l0.2 0.6-0.1 0.4-0.1 0.5h-2zm2.6 0.2v-1.3h1.9v2.2h-0.8l-0.2-0.5v-0.4l-0.1 0.4v0.5h-0.8zm4.5-0.6v-1.6l0.7-0.1 0.6-0.2 1.4 0.4 0.1 0.4 0.1 0.5-0.7 0.2-0.6 0.3v1.1l0.3-0.1 0.4-0.2v0.8h-1.1l-0.4-0.5-0.3-0.4v0.3l0.1 0.4-0.6 0.2zm10.6 1v-0.4h0.9v0.4l0.1 0.5h-1.1zm1.8-1 0.1-0.5h0.6l0.7-0.2 0.3 0.4 0.4 0.3v0.4h-2.1zm-25.7-1.1v-0.3l0.3-0.1 0.3-0.2v0.8h-0.6zm54.7-0.5-0.2-0.4 0.4-0.6 0.5-0.7-0.1-1-0.2-1 0.8-0.1 0.8-0.2 0.2 0.5 0.3 0.5-0.3 0.5-0.2 0.5 0.6 1.6-0.2 0.2-0.1 0.2-1.2-0.8-0.5 0.5-0.4 0.6zm43.8-0.7v-0.4l0.6-0.4-0.2-1.3-0.1-1.3 0.8 0.1h0.8v1.4l-0.1 1.3h0.5v0.8l-0.7-0.2-0.8-0.1-0.2 0.3-0.1 0.3h-0.5zm1.2-1.3-0.1-0.3v1-0.2l0.2-0.1zm-62 0-0.1-1.6 0.3-0.3 1 1 0.3-0.2 0.2-0.2 0.6 1-0.3 0.4-0.2 0.4-0.4-1-0.2 0.2-0.3 0.2 0.2 1.4h-0.4l-0.5 0.1zm2.9 1.2-0.3-0.1v-1.8l0.4-0.3 0.5-0.2 0.4 0.4 0.4 0.5 0.4 1.4h-0.8l-0.3 0.1-0.4 0.2zm2.5 0-0.2-0.2 0.1-1v-0.9h0.5l0.5-0.1 0.3 0.3 0.4 0.3 0.2 1.2-0.2 0.3-0.3 0.3h-1.2zm2.6 0-0.4-0.4v-1.4l0.5-0.3 0.6-0.3 0.3 0.3 0.4 0.3 1-0.4h1l2-0.2 1-0.2v0.4l-0.3 0.3-0.3 0.4 0.5 0.2 0.4 0.3v0.8l-0.6 0.3-0.7 0.3-0.4-0.2-0.5-0.2 0.3-0.2h0.3v-1.6h-0.8l-0.5 0.6-0.5 0.5v0.3l0.1 0.4h-0.8l0.1-0.6v-0.6h-0.9l-0.2 0.6-0.3 0.6h-0.8zm19.2-0.1-0.2-0.4-0.2-0.6-0.1-0.6 0.4-1.2 0.4-0.2 0.4-0.1 0.6 0.5 0.6 0.4v1.5l-1.2 1h-0.4zm1.2-0.6 0.1-0.4-0.1-0.7-0.2-0.6h-0.7l-0.2 0.4-0.1 0.4 0.1 0.6 0.2 0.7h0.7zm43 0.4v-0.5l0.2-0.2 0.4-0.2 0.3 0.5 0.3 0.4v0.3l-0.2 0.2h-1.1zm49.8 0.2-0.2-0.2h-2.9l-0.9 0.2-0.3-0.2h-0.3l0.2-0.5v-0.5l-0.2 0.5-0.3 0.5h-1.8l-0.2-0.3-0.1-0.3h-0.6l0.4 0.6h-1.1v-1.9l-0.1-0.3 0.3-0.1 0.3-0.2 0.2 0.6 0.1 0.6 0.6-0.6 0.5-0.6 0.3 0.3 0.2 0.3-0.6 0.8 0.2 0.3 0.1 0.2h1.1l-0.1-0.7-0.2-0.8 0.5-0.2 0.5-0.1 0.7 0.1 0.6 0.2 0.4-0.6h0.7l-0.1 0.7-0.2 0.8 0.2-0.3 0.3-0.3 1.4-0.2 1.3-0.1 0.3 0.5 0.2 0.4-0.1 0.7-0.2 0.6-0.6 0.4h-0.2zm-2.8-1.5v-0.6h-0.8v1.4l0.4-0.1 0.3-0.1zm-96.4 0.7 0.1-0.8-0.6-0.8 0.4-0.2 0.3-0.2h2l0.2 0.2 0.2 0.3-0.6 0.6v1.4l-0.8 0.2-0.9 0.1h-0.5zm10-0.2v-1l-0.2-0.5-0.2-0.4h0.9v1.2h0.5v-1.1h0.8l-0.1 1.5v1.4h-0.7l0.1-0.7 0.2-0.6h-0.5l-0.5 0.2 0.1 0.5v0.6h-0.5zm4.8 0.8-0.2-0.4 0.4-0.2 0.3-0.2-0.1-0.6-0.2-0.6-0.2-0.5-0.2-0.4h0.6l0.6 1.4 0.2-1.4h0.8v0.6l-0.4 1.2-0.3 1.2h-0.6l-0.5 0.2zm14.1 0h0.3v-2.1l-0.2-0.2-0.3-0.1 0.1-0.3 0.2-0.2h1.8l0.8 0.8v0.3l-0.2 0.3-0.7 0.4-0.7 0.3 0.2 1h-1.6l0.3-0.1zm2-1.9v-0.5h-0.9v1h0.8zm3.4 1.6 0.2-0.5h0.6v0.5h0.5v-1.1h-0.5v-0.6l0.4-0.6 0.6-0.2 0.1 1.5v1.5h-2.2zm9.8 0.2-0.3-0.3v-0.5l0.4 0.2 0.4 0.1-0.2-1.2-0.2-0.5-0.2-0.6h2.2l-0.4 1.4-0.4 1.3-0.4 0.2-0.3 0.2h-0.3zm1.3-2v-0.4h-0.6v0.5h0.6zm11.1 1.8-0.5-0.5v-0.8l0.8-0.8h0.7l0.4 0.4 0.5 0.4-0.1 0.6v0.5l-0.7 0.4-0.5 0.4zm1-0.7v-0.4l-0.4-0.2h-0.3v1h0.8zm-3.6 0.4 0.2-0.6-0.3-0.5-0.2-0.4h1.8l0.1 0.4 0.2 0.4v1.3h-2zm7.4-0.4v-1l0.2-0.4 0.8 0.2 0.7 0.2v1.8l-0.9 0.1-0.8 0.1zm2.4 0.7-0.2-0.4 0.1-0.6 0.2-0.7 0.4-0.2 0.5-0.3 0.5 0.5v1l0.2 0.8-0.7 0.1h-0.7zm1-1v-0.6h-0.5l-0.4 0.6 0.2 0.4 0.1 0.3h0.6zm1.7 0.5 0.2-0.8h-0.3l-0.2 0.1v-0.4l0.2-1h0.8v0.8h0.4l0.4 0.7 0.3 0.8-0.4 0.6h-1.6zm4.4 0.3v-0.6h-0.7l0.6-0.4 0.4-1 0.4 0.6 0.5 0.6 0.2-0.4 0.1-0.4h1.4l-0.1-0.4-0.2-0.4h1l0.3 0.9 0.4 1h-0.2l-0.1 0.2-0.6-0.3-0.5-0.3v-0.4l-1 0.2v1.4l-2 0.2v-0.5zm2.6 0.3v-0.3h1.9l-0.2 0.2-0.1 0.3h-1.6zm2.5-0.1-0.4-0.4v-0.8l0.4-0.8h1.4l0.2 0.4 0.1 0.4-0.2 0.1-0.3 0.2-0.4-0.3-0.3-0.3-0.2 0.4-0.1 0.5 0.1 0.2 0.2 0.3 0.7-0.7 0.4 0.4-0.4 0.8h-0.9zm2.8 0v-0.5l-0.8-1 0.1-0.2 0.2-0.3h1.5l0.2 0.2 0.2 0.3-0.4 0.6-0.3 0.6v0.3l0.1 0.4h-0.8zm1.7-0.1-0.1-0.4v-0.7l0.1-0.8h1.3l0.3 0.5 0.3 0.6 0.4 0.3 0.3 0.3-0.1 0.2-0.2 0.3h-2.2zm5.5 0-0.2-0.2 0.1-0.8 0.2-0.9h0.5l0.4-0.2 0.4 0.4 0.4 0.3v1h0.5v-1.3h0.4l0.3-0.1h0.4l0.4 0.1 1 1-0.1 0.5-0.1 0.4h-2.2l-2.1 0.1zm-82.3-1.5v-0.2l0.2-0.2 0.3-0.1v0.8h-0.5zm30.7-0.2v-0.6l0.3 0.2 0.4 0.1-0.1 0.4-0.2 0.4h-0.4zm-109.7 0-0.1-0.3 0.2-0.1 0.3-0.2v-1.8l-0.3-0.2-0.2-0.1 0.1-0.3 0.2-0.2h1.2l0.4 0.4 0.5 0.4 0.5-0.4 0.5-0.5 0.5 0.2 0.6 0.2v2.3l-0.5 0.2-0.4 0.2-0.5-0.6-0.4-0.6h-0.3l0.1 0.6 0.2 0.5-0.6-0.1-0.6-0.2-0.8 0.8h-0.4zm1.7-1.8v-0.6h-0.8v0.9l0.4 0.4h0.4zm2.3-0.1v-0.4h-0.5l-0.5-0.2v1.2l1-0.2zm3 1.8-0.5-0.2-0.3 0.1-0.2 0.2-0.7-0.2-0.6-0.2 0.3-0.6 0.4-0.7-0.3-0.6-0.2-0.7 0.3-0.1 0.4-0.1 1.7-0.1h1.8l0.1 0.3 0.2 0.4 0.6-0.6 0.8-0.1 0.7-0.2v2l0.3 0.4 0.2 0.4 0.4-0.5 0.4-0.6-0.1-0.7-0.1-0.8 1.4 0.2v0.5l-0.2 0.5 0.4 0.8 0.3 0.7-0.2 0.2-0.1 0.2-0.8-0.6-0.8 0.3-1 0.3v-0.2l-0.1-0.3-0.7 0.1-0.6 0.2-0.8-1-0.2 0.6-0.1 0.6h-0.1l-0.8 0.2-0.8 0.3zm0.7-1.3 0.1-0.8-0.1-0.2-0.2-0.3h-0.5v0.8l-0.5-0.1-0.6-0.2v0.8l0.5 0.4 0.4 0.4h0.7zm1.4-0.5v-0.5l-0.2-0.2-0.3-0.1-0.3 0.5-0.2 0.5 0.1 0.2 0.2 0.1h0.7zm4.3 0.1 0.2-0.3-0.3-0.2-0.2-0.2v1.1h0.2zm4.2 1.1v-0.6l0.6-0.4 0.5 0.6 0.6 0.5-0.1 0.1-0.2 0.1-1.4 0.4zm8.5 0.3 0.1-0.3h1.7l0.3 0.2-0.3 0.2-0.4 0.2h-1.5zm11.7 0-0.1-0.2h0.8v0.6h-0.5zm-45.9-0.2v-0.3l0.4-0.4 0.5-0.4-0.2-1.2-0.1-1.1h2l0.1 1.6 0.1 1.7v0.1l-2.8 0.4zm2.1-1.8v-0.8h-0.8v1.5l0.2 0.1 0.2 0.2 0.2-0.1 0.2-0.2zm26.8 1.8v-0.2h-0.8l-0.4-0.5-0.4-0.4v-2l0.5-0.3 0.6-0.3 0.5 0.2 0.5 0.1v1h-0.4l-0.3-0.3-0.3-0.2-0.3 0.1-0.3 0.2v1.5l0.6 0.4 0.3-0.4 0.4-0.5h0.3l-0.1 0.7-0.2 0.7h0.6v0.5h-0.8zm-25.4-0.3-0.3-0.3v-1.4l0.4-0.3 0.4-0.4 0.5 0.2 0.6 0.2v1.5l0.2 0.8h-1.5zm2.8 0.2-0.2-0.2v-1h-0.6l0.2-1.2h0.7l0.7-0.2 0.3 0.6 0.3 0.5-0.8 0.4v0.5l0.1 0.5-0.2 0.1-0.3 0.1zm17 0-0.2-0.2 0.1-0.8 0.2-0.7h-0.6v-0.8h0.5l0.5-0.2 0.6 0.4-0.1 0.2-0.2 0.3 0.4 0.2 0.4 0.1v0.8l-0.8 0.8h-0.7l-0.2-0.1zm6.9-0.3-0.1-1.1v-1.1h0.6l0.2 0.4 0.3 0.4 0.1-0.4 0.2-0.4h0.5v2l-0.9 0.1-1 0.2zm2.6-0.3-0.6-0.5 0.4-1.2 0.6-0.3 0.5-0.3 0.5 0.6 0.5 0.7v0.3l-0.1 0.4-1.2 0.8zm1-0.9v-0.5h-0.2l-0.4 0.2v0.4l-0.1 0.5h0.8zm1.1 1v-0.4l0.6-0.4v-0.7l-0.2-0.7h1.4l0.1 1.1 0.2 1.1-2 0.2v-0.3zm1.3-1-0.2-0.4v1.2l0.2-0.2 0.1-0.2-0.1-0.3zm4.9 0.8-0.1-0.5h-0.5v0.8h-0.3l-0.3-0.2v-1l-0.1-1h0.7v0.9h0.5v-0.8h1.8l0.2 0.4 0.1 0.4h0.6v-0.8h1v-1.2l0.9 0.2 0.9 0.1 0.1 0.3 0.2 0.3v1l-0.2 1.1-1.1 0.1-1.2 0.1h-1.5l-1.6 0.1zm1.1-0.7v-0.6h-0.5v0.7l-0.2 0.7 0.4-0.1 0.3-0.1zm2.7 0.2 0.1-0.2-0.2-0.4-0.1-0.5h-0.5v1.4h0.5zm-7.1 0.1 0.1-0.6-0.6-0.8h0.3l0.4-0.2 0.3 0.1 0.4 0.1v0.6l0.8 0.6-0.1 0.5-0.2 0.4h-1.5zm119.7 0.2v-0.3h0.5l-0.2 0.3-0.1 0.2h-0.2zm-81.1-2.9 0.2-0.4v-0.6l0.2-0.6-0.6-1 0.8-0.1 0.8-0.2 0.8 1 1.1-1.1 1 0.6v0.6l-0.1 0.6-0.2 0.6-0.4 0.2-0.5 0.1-0.4-0.5-0.5-0.6-0.6 0.7-0.7 0.8v0.4h-1.1zm3.8-1.1v-0.3h-0.8v0.6h0.8zm-2.1-0.4v-0.4l-0.3-0.1-0.3-0.2-0.3 0.2-0.2 0.3 0.1 0.3 0.2 0.3h0.8zm2-0.4 0.1-0.3h-0.8l0.1 0.3 0.2 0.3h0.2zm2.7 1.8v-0.3l-1.6 0.4 0.4-1v-1.7h1.5l-0.1 0.9-0.2 0.9 0.6 0.4v0.7h-0.6zm32.6-0.5 0.3-0.8-0.3-0.7-0.3-0.6v-0.2h2v1l0.2 1.1-0.6 0.1-0.6 0.2 0.2 0.4 0.1 0.3h-1.3zm1.6-1v-0.5l-0.6-0.4-0.6 0.6 0.4 0.8h0.8zm-43.2 1.5v-1.8l-0.2-1.7 0.7-0.1 0.6-0.2 0.4 0.1 0.4 0.2v3.1l0.1 0.2h-1l-1 0.1zm1.4-1v-0.3h-0.8v0.5l0.3 0.3 0.2-0.1 0.3-0.2zm0-1.2v-0.4h-0.8v1.1l0.6-0.2zm8.9 1.7-0.5-0.3v-1.5l0.6-0.3 0.5-0.3 0.8 0.6v0.5l-0.7-0.2-0.7-0.1 0.1 0.6v0.6h0.7l0.7-0.1-0.4 0.4-0.3 0.4h-0.3zm7-0.9v-1.2h1.5l0.1 0.4 0.2 0.4v1.3l-0.6 0.1-0.6 0.2h-0.6zm5.3 0.7-0.1-0.4-0.3-0.5-0.2-0.5v-0.6l1.2 0.2 1.3 0.1 0.4-0.3 0.5-0.3 0.6 0.5 0.5 0.5v0.9l-0.6 0.6h-1.3l-0.1-0.5-0.2-0.5h-1.2v0.5l0.2 0.1 0.3 0.2-0.2 0.2-0.1 0.3h-0.5zm3.1-0.4v-0.1l-0.2-0.2-0.3-0.1-0.2 0.2-0.1 0.3h0.8zm8.1 0.7-0.1-0.1 0.1-0.3 0.2-0.3 0.3-1 0.3-1.1 0.8-0.2 0.3 1.1 0.3 1.2v0.4l0.2 0.3-1.1 0.1h-1.1zm3 0-0.2-0.2v-1l0.2-1.1v-0.2l0.4 0.4 0.4 0.5 0.6-0.6h0.4v2.1l-1 0.2h-0.8zm37.4 0-0.8-0.1-0.2-2.4h1.8v1.8l0.3 0.4 0.2 0.5h-0.2l-0.2-0.1zm0.3-1.2 0.1-0.6-0.2-0.4-0.3 0.2-0.2 0.1v1.3h0.4zm35 1.3v-0.2h-3.2l-0.2-0.2h-0.3l0.5-0.6 0.5-0.5-0.3-0.3-0.4-0.3v-0.7h2.1l0.9-0.4 0.8-0.5v0.1l0.1 0.1 0.2 1.8 0.1 1.8h-0.6zm-0.5-1.1v-0.4l-0.5-0.3-0.6-0.3v0.2l-0.2 0.1 0.2 0.6 0.1 0.5h0.5l0.4-0.1zm-96.1 0.5 0.1-0.4-0.5-0.4-0.6-0.4 0.2-0.2 0.1-0.3h1.8l0.4 0.6-0.4 0.3-0.5 0.4v0.8h-0.8zm1.7-0.6 0.1-1h0.8l0.7-0.1v0.9l0.1 0.6 0.2 0.6h-2zm4.9 0v-1h1.9v2h-2v-1zm7.3 0.6v-0.4h0.5v-0.7l-0.1-0.7h3.9l0.4 0.3 0.3 0.4v0.7l-0.1 0.7h-4.9zm1.2-0.7-0.1-0.3v1-0.2l0.2-0.1zm1.3 0.4 0.1-0.3-0.1-0.4-0.2-0.4-0.2 0.1-0.3 0.2v1h0.5zm1.7-0.3v-0.3h-0.2l-0.2 0.3-0.2 0.2h0.6zm8.3 0.7-0.4-0.3v-0.9l0.2-0.4 0.2-0.5h1.1l0.3 0.4 0.4 0.3v1.1l-0.4 0.3-0.3 0.3h-0.8zm1.2-0.5v-0.2h-0.5v0.5h0.5zm-0.2-0.8v-0.2h-0.6l0.2 0.2 0.1 0.3h0.3zm3.8 0.4v-1.1l2 0.1h2.2v0.4l0.2 0.3h-0.8v0.5l0.4 0.3 0.4 0.4v0.4h-0.6l-0.4-0.4-0.3-0.5v0.9h-3.1v-1.2zm2.2 0v-0.6h-0.5v1.3h0.5zm2.5 0.8-0.1-0.3v-0.8l0.2-0.7 0.5-0.1h0.6l0.3 0.4 0.4 0.4v0.7h0.3l0.2-0.1v-0.7l-0.1-0.8h0.8v0.8h0.5l-0.1-0.4-0.2-0.4h0.8l0.2 0.3 0.1 0.3-0.1 0.9-0.2 1h-0.5v-1.1h-0.5v0.9h-2.9zm5.2 0-0.2-0.2v-1.4l0.3-0.3 0.2-0.3 1.2 0.4h1.2l1.3-0.1v0.6l-0.6 0.6 0.4 0.2 0.5 0.2v0.7h-0.4l-0.5-0.4-0.5-0.5v0.9h-2.6zm1.3-0.4 0.3-0.3v0.6h0.5v-1l-0.2-0.2-0.3-0.1v0.3l-0.2 0.3-0.6-0.8-0.3 0.4-0.3 0.3 0.2 0.4 0.1 0.4h0.5zm3.5 0.8v-0.1l-0.1-1.1v-1.1h4v0.8l-0.3 0.7 0.5 0.2 0.4 0.2-0.1 0.2-0.2 0.2h-2.1v-0.4l0.6-0.6-0.2-0.4-0.1-0.5-0.4 0.1-0.3 0.2v1.5h-0.9l-0.8 0.2zm5-0.8v-0.8l-0.6-0.4 0.4-0.6h1l0.2 0.4 0.2 0.5 0.8 0.6-0.6 1h-0.8l-0.9 0.2zm4.4 0.3-0.5-0.5 0.3-1 0.2-1 0.7-0.1h0.8l0.3 0.2 0.2 0.2-0.2 0.5-0.1 0.5-0.8-1-0.2 0.2-0.3 0.2v1.5l0.6 0.4 0.2-0.5 0.3-0.4h0.5v0.6l-0.2 0.6h-0.7l-0.6 0.1zm2.8 0.2-0.3-0.3v-1.4l0.6-0.6h0.9l0.3 0.8 0.4 0.8-1 1h-0.6zm1.2-1.2-0.2-0.3h-0.8v0.9l0.4 0.4 0.7-0.7zm4.3 1.3h-0.4v-0.7l0.2-0.7-0.3-0.3-0.3-0.4 0.4-0.4v-0.6h0.8v1l-0.2 1 0.5 0.5 0.4 0.5-0.4 0.1-0.3 0.1zm2.9 0h-1.3v-2.4h0.9l0.4 0.3 0.3 0.3v1l0.4 0.1 0.4 0.2 0.3-0.3v-1.7l1.4 0.2v0.6l-0.1 0.6 0.2 0.5 0.3 0.5-1 0.1h-1zm9.2 0-0.2-0.1v-1.3l-0.6 0.4 0.1-0.7 0.1-0.6h1.6v0.5l0.2 0.5-0.4 0.2-0.4 0.3 0.1 0.3 0.1 0.4-0.2 0.2-0.2 0.1zm2.6 0h-0.8v-2.2l2.3-0.2h2.3l-0.1 0.8-0.2 0.8 0.3 0.4 0.4 0.4-0.5 0.1-0.5 0.2-0.4-0.3-0.4-0.2-0.4-0.9-0.4-0.8h-0.4l-0.1 0.4-0.2 0.4 0.3 0.5 0.2 0.5-0.6 0.2zm4.5-0.4-0.4-0.6 0.2-0.7 0.3-0.7h1.6l0.1 0.4 0.2 0.4 0.5-0.4 0.6-0.5 0.7 0.3 0.8 0.3 0.2-0.4h4.9v1.3l0.2 1.3-1.6-0.1-1.6-0.2-0.3-0.3-0.4-0.3-0.1 0.4-0.2 0.3h-2.8l-0.2-0.1h-0.2l-0.1-0.6-0.2-0.5-0.5 0.7-0.6 0.6h-0.7zm4.9-0.5v-0.6h-1.9v0.3l0.6 0.6 0.4-0.1 0.3-0.2 0.4 0.6h0.2zm3 0.2 0.2-0.5-0.3-0.2-0.4-0.2-0.3 0.2h-0.4v0.8l0.4 0.1 0.3 0.2h0.4l0.2-0.4zm-20.6-0.5v-1l1-0.1h0.9v2.2h-2l0.1-1.2zm2.4 0.8-0.2-0.5v-0.9l0.4-0.4 0.4-0.3 1.4 0.4-0.2 0.6h-1.2v1l1.4-0.4-0.1 0.4-0.1 0.3-0.8 0.1h-0.8zm-143.2-2.5-0.1-0.3 0.1-0.3 0.2-0.2h0.8v0.4l-0.2 0.4-0.6 0.2zm2.4 0-0.1-0.3 0.2-0.5 0.3-0.4 0.2-0.8 0.3-0.7 0.6 0.1 0.5 0.2 1-1.2v-0.6l-0.3 0.2-0.4 0.1v-0.7l0.8-0.7 1-0.7h0.2v1.4l-0.9 1.1-0.8 1.1-0.3 0.4-0.3 0.3 0.4 0.4 0.6-0.4 0.6-0.3 1-1 1-0.9 0.3-0.8 0.3-1h0.5v0.8l-1 2-0.9 2h-0.6l0.2-0.6 0.2-0.7-0.8 0.5-0.7 0.4-0.1 0.1h-0.1l0.3 0.5 0.4 0.4-0.6 0.6-0.6-0.4v-0.9l-0.5-0.2-0.5-0.1-0.2 0.3-0.3 0.3-0.1 0.5-0.2 0.4h-0.5l-0.2-0.2zm-4.7-0.4-0.1-0.3-0.2-0.4-0.1-0.4v1l-0.4-0.1-0.3-0.1v-2.2l0.2-0.1h0.2l0.4 0.7 0.3 0.8v-1.8l0.8 0.1 0.7 0.1 0.2 1.2h-1.1v1.8h-0.5zm0.9 0v-0.2h0.5l-0.1 0.3-0.2 0.2h-0.2zm8.8 0.1-0.1-0.2 0.3-0.2 0.2-0.2 0.6 0.4v0.4h-0.8zm2.5 0h-0.2l0.1-0.3 0.2-0.2h0.7v0.7h-0.7zm2.4 0h-0.2l0.1-0.3 0.2-0.2h0.7v0.7h-0.7zm2.4-0.1v-0.5l0.6 0.1h0.6v0.6l-0.6 0.1h-0.6zm2.4 0v-0.4l0.2-0.1 0.1-0.2 0.4 0.2 0.4 0.1v0.7h-1.1zm-8.7-0.8-0.3-0.3v-0.5l0.4 0.4 0.4 0.3 1-0.9 0.8-0.9v-0.4h-0.7v-1l0.4-0.4 0.5-0.4h0.7l-0.2 1-0.2 1.2-0.5 0.7-1.6 1.6h-0.4zm3.1-0.2v-0.2h0.6v0.5h-0.6zm2.1-2.8 0.4-0.3-0.2-1-0.2-0.8 0.3-0.7 0.3-0.6-1.8 2-0.1-0.2-0.2-0.2 1-1.2 1.1-1.2 2.4-3.6-0.2-0.3-0.3-0.2h-0.6l-0.6 0.1-0.5 1.3-0.4 1.3-1.2 0.8-0.2-0.3-0.2-0.4 0.2-0.4 0.3-0.5 0.5-0.2 0.5-0.1 1-2.8h0.3l0.2-0.1 0.2 0.5 0.1 0.5h1.7v0.5l-0.6 0.7-0.5 0.7v0.3h1.5l-0.2 2 0.3 0.5 0.3 0.4-0.2 0.1-0.9 0.3-1 0.3-0.6-0.1-0.7-0.1-0.3 0.6-0.4 0.7 0.6 1.4v0.5h-1.4zm3-4v-0.4l-0.3-0.7-0.1-0.6-0.7 0.7-0.6 0.7 1 0.8h0.7zm0.4-1-0.1-0.5v1.5l0.1-0.3 0.1-0.4v-0.3zm-14.3 2.3-0.5-0.5 0.2-1.2 0.1-1.2h-0.7l-0.6 0.5-0.7 0.5-0.3-0.3 0.2-0.6v-0.7h1l0.6-1 0.7-1 0.3-0.7 0.4-0.7h0.5v0.6l-0.8 1.2-0.8 1.1v0.4h0.5l1.5-1.4 1.5-1.5h1l-0.3 0.6-0.3 0.5-1.1 0.8-1.2 0.8-1.2 2.4 0.3 0.2 0.4 0.2-0.1 0.4-0.1 0.3 1.2 0.2-0.1 0.3-0.2 0.2h-0.9zm-17.3-0.4-0.3-0.3 0.2-0.4 0.3-0.3 0.4 0.1 0.4 0.2v0.5l-0.1 0.4h-0.3l-0.3 0.2zm14.8 0-0.4-0.4 0.6-0.6 0.3 0.2 0.3 0.1v0.8l-0.3 0.1-0.2 0.2zm-12.5-0.3v-0.4l0.3-0.1 0.3-0.2 0.2 0.3 0.3 0.4v0.4h-1.1zm2.5 0v-0.6h0.8l0.1 0.4 0.1 0.5h-1.1zm2.3 0 0.1-0.5h0.8v0.8h-0.5l-0.5 0.2zm5 0.2-0.2-0.1 0.3-0.4 0.2-0.4h0.5v1.1h-0.7l-0.2-0.2zm10 0-0.3-0.4 0.6-0.6 0.6 0.4 0.5 0.3 0.7-0.4 0.6-0.4v-1.5l0.2-0.9 0.1-0.8h0.7l0.6 1.4-0.2 0.6-0.1 0.7-0.5 0.2-0.5 0.3v0.6l0.1 0.5-1.5 0.1h-1.5zm4.8 0-0.4-0.3 0.4-0.3 0.3-0.4 0.3 0.4 0.3 0.3-0.5 0.5zm-7.6-0.4 0.1-0.3h0.7l0.2 0.3v0.3h-1.1zm14.4 0.1-0.1-0.2 0.5-0.2 0.6-0.2-1.4-0.8v-0.5l0.1-0.6 0.5-0.3 0.4-0.3 1 0.6v0.7l0.1 0.6-0.2 0.7-0.3 0.7h-1.1zm1.2-1.9v-0.5l-0.2-0.1-0.3-0.1-0.3 0.2-0.4 0.2 0.2 0.4 0.2 0.5h0.8zm1.2 2-0.2-0.4 0.3-0.1 0.3-0.2v-1.8l-0.3-0.1-0.3-0.2v-0.5h1.3v2.9l0.2 0.4h-0.6l-0.6 0.2-0.1-0.3zm3.1-1 0.2-1.3-0.5 0.2-0.6 0.2v-1.1h2.1v0.7l-0.5 1.2-0.6 1.2h-0.3zm4.1 1v-2.4h0.6l0.6-0.1 0.5 0.3 0.5 0.4-0.1 0.5-0.2 0.4-0.5-0.1-0.6-0.2v1.3h-0.8zm2.8 0-0.1-0.3 0.3-0.3 0.4-0.3 0.3 0.3 0.3 0.4-0.3 0.3h-0.7zm2.4-0.6-0.7-0.4 0.3-0.3 0.3-0.4h1.2l0.4 0.4 0.3 0.4-0.3 0.4-0.4 0.4h-0.3zm-27.5-0.5-0.2-0.2v-1.2l1.2-0.6 0.3-0.4 0.3-0.3h0.5l0.5-0.2v0.5l0.1 0.6-0.3 0.5-0.4 0.5-0.7 0.5-0.8 0.5h-0.3zm1-0.8 0.2-0.4-0.3-0.3-0.3 0.4-0.2 0.4v0.4h0.5zm-19 0.2-0.4-0.4v-1.5l1.5-1.5 1.6-1.5 0.4-0.3 0.5-0.4v-1.7l0.1-0.2 0.2-0.2 0.5 0.6 0.4 0.6 0.2-0.6 0.1-0.5h2.5l0.3 0.8 0.2 0.7-0.6 0.8h-0.9l-0.6-0.6-0.4 0.6h-2l0.1 0.9 0.2 0.9-0.7 0.7-0.7 0.8v-0.6l0.4-0.3 0.4-0.4v-0.6h-0.5l-1 0.8-0.9 0.9v0.5l0.4-0.2 0.5-0.1 0.3 0.3 0.4 0.3v1.1l-1 0.5-0.9 0.4h-0.1zm1.7-0.9v-0.4h-1.3v0.7l0.2 0.2 0.2 0.1h0.4l0.4-0.1zm5.6-5.3v-0.4h-0.8v0.4l0.1 0.2 0.2 0.2h0.5zm-13 5.7v-0.8h0.9l0.4 0.2 0.3 0.2v0.5l-0.1 0.5-0.7 0.1h-0.7v-0.7zm12 0.6v-1.4h1.4l0.4 0.8-0.6 0.8h-0.9zm-1.4-0.4v-0.3l0.2 0.2 0.3 0.2v0.2h-0.5zm66.6-1.5-0.2-0.2v-3.1l0.7-0.2 0.7-0.3 1.2 0.4v1.3l0.1 1.4v0.7h-1.1l-1.2 0.1zm1.5-1.8-0.2-0.8-0.4 1.6 0.2 0.2v0.3l0.6-0.6zm3.5 1.9-0.1-0.2 0.1-1.2 0.2-1.2-0.4-0.2-0.3-0.2 0.4-0.6h1.7l0.4 0.3 0.5 0.4v0.5l-0.2 0.5-0.7 0.4-0.8 0.3 0.2 0.4 0.2 0.5-0.4 0.2-0.3 0.2h-0.3zm1.4-2.3v-0.2h-0.5v0.5h0.5zm28 1.9-0.6-0.6h0.7v-1.1l-0.5-0.5-0.4-0.5 0.3-0.4 0.4-0.4h1.1l0.9 1.3 0.8 1.3v0.6l-1.2 0.8h-1.1zm1.5-1.1-0.2-0.3-0.2 0.2-0.3 0.1v0.9l0.4-0.4 0.4-0.3zm-26 0.6-0.3-0.8v-1l0.4-0.4 0.3-0.5h1.1l0.8 1.2v1.4l-0.5 0.4-0.4 0.4h-0.9zm1.4-1-0.2-1h-0.4l-0.2 0.6-0.2 0.5 0.4 0.6 0.3 0.6 0.2-0.3 0.3-0.3zm3.4 0v-1.7h1.4l0.6-0.6v0.3l0.1 0.4v3.3h-0.7v-1.3l0.2-1.4-0.4 0.1-0.3 0.2v1.2l0.1 1.2h-1zm5 1.3-0.1-0.4 0.6-0.4-0.1-0.7-0.1-0.6-0.2-0.4-0.2-0.5h2.4v0.4l-1 2.6-0.3 0.2-0.4 0.2h-0.4zm1.2-2.3-0.2-0.3v1l0.3-0.3zm3.6 2.1-0.4-0.5v-1.4l0.5-0.5 0.5-0.4h1.1l0.3 0.4 0.4 0.4-0.5 0.4-0.4 0.5-0.2-0.5-0.1-0.4h-0.8v1.5l0.6 0.4 0.8-1 0.2 0.4 0.3 0.4-0.9 0.9h-0.9zm4.8-1v-1.7l0.2-0.1 0.2-0.2 1 0.2 1 0.1v3.3h-1.2l-1.2 0.1zm1.3 0.9 0.2-0.3-0.3-0.2-0.3-0.1v0.8h0.3zm0-1.6 0.2-0.3h-0.6v0.5h0.3zm-93.4-2.3v-1.2h1.1l0.4 0.4 0.3 0.4-0.1 0.7v0.8h-1l-0.7 0.1zm2.7 0.4 0.2-0.8h-0.9v-0.3l0.2-0.4h1.5v0.7l0.3 0.3 0.4 0.3v0.7l-0.4 0.1-0.5 0.2h-1zm4.8 0.6-0.2-0.2 0.1-1v-0.9h1.4v1l0.1 0.8-0.3 0.3-0.4 0.2h-0.6zm1-0.6-0.2-0.3h-0.5v0.6h0.9zm1 0.5v-2h1.4v0.7l0.2 0.7 0.2 0.3 0.3 0.3h-0.7l-1.2 0.4-0.1-0.4zm2.6-0.5v-0.7l-0.2-0.5-0.2-0.4h0.9l0.2 0.4 0.2 0.5 0.2-0.5 0.2-0.4h0.5v0.8h-0.3l-0.4 0.2 0.9 0.9 0.5-0.1 0.4-0.2v-1.6h1v0.8l0.2 0.9 0.2 0.8-2.8-0.2-0.4-0.3-0.3-0.4v0.9h-0.8zm3.6-0.9-0.2-0.3v1.4l0.2-0.3 0.1-0.3zm4.5 1-0.7-0.5-0.2-0.6-0.1-0.6h2v2.1l-0.2 0.1v0.1zm0.3-1v-0.5l-0.2 0.2-0.3 0.2v0.5h0.5zm6.8 0.8 0.2-0.9-0.3-0.2-0.4-0.2 0.4-0.3 0.3-0.4h0.4v2l0.6 0.4v0.5h-1.3zm3 0.7-0.3-0.1 0.2-0.3 0.1-0.2h-0.5v0.5h-0.8l0.2-0.8 0.1-0.9 0.2-0.6h1.6v2.5h-0.4zm-13.4-1.1v-1h0.7l-0.2 0.3-0.1 0.4h0.4l0.8-0.8 0.4 0.4 0.3 0.5-0.2 0.6-0.1 0.5-0.1 0.1-0.2 0.1-1-0.6v0.5h-0.6v-1zm1.9-0.3-0.2-0.3h-0.5v1l0.4 0.4 0.2-0.4 0.3-0.4zm3 0.8-0.3-0.6 0.5-0.6 0.4-0.6h0.3l0.5 0.2 0.5 0.3v1.2l-0.6 0.6h-1zm1.2 0 0.2-0.3h-0.9l0.4 0.6h0.2zm1.2-0.5v-1l0.8-0.1 0.8-0.2 0.2 0.2v0.2l-0.1 1-0.2 1h-0.4v-0.9h-0.5v0.8h-0.6zm7.3-5.7-0.2-0.4 0.6-1.4-0.1-0.5-0.2-0.4 0.6-0.4 0.5 0.2 0.5 0.1v1.6l0.3 0.5 0.4 0.5-0.2 0.2-1 0.3-1 0.1zm-46.7-0.4v-0.2l0.6-0.4-0.1-1.3-0.2-1.3h1l1 0.1v0.7l0.1 0.7-0.8-1-0.2 0.2-0.3 0.1v1l0.2 0.9 0.3 0.3v0.5h-1.6zm3.3 0-0.8-0.2 0.4-0.2 0.3-0.2v-1.5l0.3-0.1 0.4-0.1 0.3 0.1 0.2 0.2 0.2 2-0.2 0.1h-0.3zm0.6-1.1-0.1-0.4v1-0.1l0.2-0.2zm1.7 1.2-0.3-0.2v-2h0.7l0.7 0.1 0.3 0.9 0.2 0.9-0.3 0.2-0.4 0.2h-0.5zm2.3-1v-1.3l0.2-0.1 0.3-0.1 0.6 0.3 0.7 0.3v0.6l0.1 0.6-0.2 0.3-0.3 0.3h-0.7l-0.6 0.1zm2.5-0.2v-1h1.6v1l0.1 1h-0.8l0.2-0.3 0.1-0.4h-0.7v0.8h-0.5v-1zm2.5 1-0.2-0.3v-1.4l0.4-0.3 0.4-0.4 0.4 0.4 0.3 0.4 0.2 0.8 0.1 0.9h-1.4zm2.5-0.7v-0.8l-0.4-0.8h1l0.8 0.1v0.7l0.2 0.7-0.8-1-0.4 0.6 0.2 0.6 0.2 0.7h-0.8zm2.4 0.5-0.3-0.3v-1.2l0.6-0.6h0.9l0.3 0.6 0.3 0.7-0.3 0.5-0.3 0.6h-0.9zm1.1-0.8v-0.4h-0.4l-0.5-0.1v1.1h0.5l0.4-0.2zm3.5 0.7-0.2-0.4h0.8v-1.1h0.5l0.2-0.6 0.2-0.7h0.4v0.4l-0.8 2.8h-0.9zm2.7-0.8v-1.2h1.6v2.4h-1.6zm1.1 0.1v-0.5l-0.2-0.1-0.3-0.2-0.1 0.4-0.1 0.3 0.1 0.3 0.1 0.4h0.5zm1.4 0.8-0.3-0.4v-0.5l0.1-0.5 0.2-0.4 0.2-0.3h0.8l0.8 2h-0.2l-1.4 0.4zm2.4-0.9v-1.2h0.8l0.6 0.4 0.2 0.7 0.1 0.6-0.3 0.3-0.2 0.4h-1.2zm2 1v-0.3l0.3-0.2 0.3-0.1v-1.6h1.3v1.2l0.1 0.6 0.2 0.6h-2.2v-0.3zm1.3-1-0.2-0.3v1l0.3-0.3-0.1-0.3zm1.8 0.8-0.5-0.3 0.2-1.2 0.4-0.3 0.5-0.3 0.4 0.4 0.4 0.3v1.2l-1 0.6zm0.8-0.4 0.1-0.3h-0.8v0.6h0.5zm2.3 0.3-0.2-0.6h-0.4v0.9h-0.6v-2h1.9l-0.2 2-0.2 0.2-0.1 0.2zm1.7 0.2 0.3-0.3v-1.2l-0.6-0.2 0.8-1.2h0.2v1.3l0.1 1.2 0.6 0.2v0.5h-1.7zm2 0v-0.2l0.2-0.2 0.3-0.2-0.1-0.4v-0.4l0.1-0.4 0.2-0.3h1.3v2.3h-2zm7.3-0.2-0.2-0.5v-1l0.3-0.3 0.3-0.4h0.9l0.6 0.8 2-0.2 0.3 0.2 0.4 0.2-0.4 1-1-0.2-1-0.1-0.6 1h-1.3zm1.3-0.8v-0.3h-1l0.2 0.4 0.1 0.4h0.3l0.3-0.2zm-27.8-1.3-0.3-0.4 0.2-0.1 0.2-0.2 0.1 0.2 0.2 0.1-0.1 0.4-0.1 0.3zm9.7-5.6v-1.6h0.7l2.6 0.6 0.4 0.5 0.5 0.5-0.2 0.4-0.1 0.4h-1.3l-0.2-0.2-0.1-0.2 0.3-0.3 0.3-0.4-0.6-0.6-0.6 1.4-0.6 0.2-0.5 0.1 0.2 0.4 0.1 0.4h-0.9zm1.5-0.4v-0.7h-0.8l-0.2 0.3-0.1 0.3 0.1 0.4 0.2 0.4h0.8zm-18.8 1.3v-0.3l-0.1-1.5v-1.5h0.9v0.5l-0.1 0.4h0.5l-0.1-0.3v-0.3l0.2-0.2 0.3-0.2 0.6 0.6-0.3 0.4-0.4 0.4 0.2 1.2h0.3l0.3 0.2 0.1-0.7 0.1-0.8 0.4-0.2 0.5-0.3 0.5 0.5 0.6 0.5v0.6l-0.8 0.8h-2.6l-0.5 0.2-0.6 0.2zm1.2-1 0.1-0.2h-0.8l0.1 0.3 0.2 0.3h0.2zm2.8 0v-0.3l-0.3-0.4-0.2-0.3-0.3 0.1-0.3 0.2v1.1h1.1zm0.9-0.2v-1h0.6v1h0.5l0.4-1h0.4v2h-2zm2.6 0 0.1-1.2 0.2 0.1 0.3 0.1-0.1 0.3v0.2h0.4l0.2-0.4 0.1-0.4 0.3 0.1 0.3 0.2-0.2 0.4-0.1 0.4 0.2 0.6 0.3 0.7h-2zm2.4 0.4-0.2-0.6 0.2-0.4 0.1-0.4 0.5-0.2 0.4-0.2 0.4 0.5 0.4 0.4-0.1 0.2-0.2 0.1-0.8-0.6-0.2 0.4-0.1 0.4 0.1 0.3 0.2 0.3 0.6-0.2 0.5-0.2-0.1 0.4-0.1 0.3-1.4 0.2zm2.5 0.2-0.2-0.5v-0.8l0.3-0.3 0.4-0.3 0.6 0.1 0.5 0.2v0.5l-0.7-0.2-0.7-0.1 0.2 1.2h0.6l0.7-0.1-0.2 0.3v0.3l-1.2 0.2zm2.4-0.5-0.2-0.9 0.4-0.3 0.3-0.2 0.5 0.2 0.5 0.3 0.1 0.8 0.2 0.8-0.2 0.1-0.1 0.2h-1.4z" filter="url(#a)"/>
</svg>
